<svg xmlns="http://www.w3.org/2000/svg" width="103.8mm" height="52.6mm" viewBox="-51.9 -26.3 103.8 52.6"><g fill="none" stroke="#111" stroke-width="0.35" stroke-linejoin="round"><path d="M42.89,8.49 L43.23,8.63 L43.37,8.70 L43.49,8.80 L43.60,8.91 L43.69,9.05 L44.10,9.56 L44.62,9.89 L45.21,10.02 L45.83,9.94 L45.98,9.90 L46.14,9.90 L46.29,9.92 L46.44,9.96 L47.09,10.29 L47.70,10.72 L48.25,11.22 L48.72,11.81 L48.89,12.05 L49.05,12.28 L49.21,12.52 L49.37,12.76 L49.66,13.33 L49.83,13.94 L49.88,14.58 L49.80,15.23 L49.59,15.84 L49.26,16.38 L48.84,16.83 L48.34,17.18 L46.24,18.46 L44.28,19.96 L42.48,21.68 L40.84,23.59 L40.55,23.89 L40.20,24.12 L39.82,24.26 L39.41,24.31 L37.90,24.31 L37.33,24.21 L36.82,23.93 L36.41,23.50 L36.14,22.94 L36.05,22.67 L35.78,22.11 L35.37,21.68 L34.86,21.40 L34.29,21.30 L19.52,21.30 L18.91,21.41 L18.38,21.72 L17.96,22.20 L17.71,22.81 L17.46,23.42 L17.05,23.89 L16.51,24.20 L15.90,24.31 L14.39,24.31 L13.99,24.26 L13.60,24.12 L13.26,23.89 L12.96,23.59 L11.25,21.60 L9.36,19.83 L7.30,18.29 L5.10,16.99 L4.58,16.82 L4.05,16.81 L3.53,16.97 L3.07,17.28 L2.42,17.76 L1.69,18.05 L0.91,18.14 L0.13,18.03 L-0.61,17.72 L-1.25,17.24 L-1.76,16.61 L-2.12,15.85 L-2.40,15.31 L-2.80,14.90 L-3.30,14.63 L-3.87,14.54 L-17.54,14.54 L-18.10,14.63 L-18.60,14.90 L-19.01,15.31 L-19.28,15.85 L-19.77,16.79 L-20.48,17.51 L-21.35,17.98 L-22.34,18.14 L-23.33,17.98 L-24.21,17.51 L-24.92,16.79 L-25.40,15.85 L-25.68,15.31 L-26.08,14.90 L-26.58,14.63 L-27.15,14.54 L-43.13,14.54 L-45.93,12.13 L-45.93,11.13 L-45.75,11.09 L-45.60,10.98 L-45.50,10.82 L-45.46,10.63 L-45.50,10.43 L-45.60,10.27 L-45.75,10.16 L-45.93,10.12 L-49.41,10.12 L-49.59,10.09 L-49.74,9.98 L-49.84,9.82 L-49.88,9.62 L-49.88,-9.62 L-49.84,-9.82 L-49.74,-9.98 L-49.59,-10.09 L-49.41,-10.12 L-45.93,-10.12 L-45.75,-10.16 L-45.60,-10.27 L-45.50,-10.43 L-45.46,-10.63 L-45.50,-10.82 L-45.60,-10.98 L-45.75,-11.09 L-45.93,-11.13 L-45.93,-12.13 L-43.13,-14.54 L-27.15,-14.54 L-26.58,-14.63 L-26.08,-14.90 L-25.68,-15.31 L-25.40,-15.85 L-24.92,-16.79 L-24.21,-17.51 L-23.33,-17.98 L-22.34,-18.14 L-21.35,-17.98 L-20.48,-17.51 L-19.77,-16.79 L-19.28,-15.85 L-19.01,-15.31 L-18.60,-14.90 L-18.10,-14.63 L-17.54,-14.54 L-3.87,-14.54 L-3.30,-14.63 L-2.80,-14.90 L-2.40,-15.31 L-2.12,-15.85 L-1.76,-16.61 L-1.25,-17.24 L-0.61,-17.72 L0.13,-18.03 L0.91,-18.14 L1.69,-18.05 L2.42,-17.76 L3.07,-17.28 L3.53,-16.97 L4.05,-16.81 L4.58,-16.82 L5.10,-16.99 L7.30,-18.29 L9.36,-19.83 L11.25,-21.60 L12.96,-23.59 L13.26,-23.89 L13.60,-24.12 L13.99,-24.26 L14.39,-24.31 L15.90,-24.31 L16.48,-24.21 L16.99,-23.93 L17.39,-23.50 L17.66,-22.94 L17.75,-22.67 L18.02,-22.11 L18.43,-21.68 L18.94,-21.40 L19.52,-21.30 L34.29,-21.30 L34.90,-21.41 L35.43,-21.72 L35.84,-22.20 L36.09,-22.81 L36.34,-23.42 L36.76,-23.89 L37.29,-24.20 L37.90,-24.31 L39.41,-24.31 L39.82,-24.26 L40.20,-24.12 L40.55,-23.89 L40.84,-23.59 L42.48,-21.68 L44.28,-19.96 L46.24,-18.46 L48.34,-17.18 L48.84,-16.83 L49.26,-16.38 L49.59,-15.84 L49.80,-15.23 L49.88,-14.58 L49.83,-13.94 L49.66,-13.33 L49.37,-12.76 L49.21,-12.52 L49.05,-12.28 L48.89,-12.05 L48.72,-11.81 L48.25,-11.22 L47.70,-10.72 L47.09,-10.29 L46.44,-9.96 L46.29,-9.92 L46.14,-9.90 L45.98,-9.90 L45.83,-9.94 L45.21,-10.02 L44.62,-9.89 L44.10,-9.56 L43.69,-9.05 L43.60,-8.91 L43.49,-8.80 L43.37,-8.70 L43.23,-8.63 L42.89,-8.49 L42.15,-8.03 L41.59,-7.38 L41.23,-6.58 L41.10,-5.68 L41.10,5.68 L41.23,6.58 L41.59,7.38 L42.15,8.03 Z"/><path d="M-38.48,12.13 L-38.44,12.32 L-38.34,12.48 L-38.19,12.59 L-38.01,12.63 L-37.83,12.59 L-37.68,12.48 L-37.58,12.32 L-37.55,12.13 L-31.96,12.13 L-31.92,12.32 L-31.82,12.48 L-31.68,12.59 L-31.49,12.63 L-31.31,12.59 L-31.17,12.48 L-31.07,12.32 L-31.03,12.13 L-31.03,10.12 L-31.07,9.93 L-31.17,9.77 L-31.31,9.66 L-31.49,9.62 L-31.68,9.66 L-31.82,9.77 L-31.92,9.93 L-31.96,10.12 L-37.55,10.12 L-37.58,9.93 L-37.68,9.77 L-37.83,9.66 L-38.01,9.62 L-38.19,9.66 L-38.34,9.77 L-38.44,9.93 L-38.48,10.12 Z"/><path d="M-17.06,12.13 L-17.02,12.32 L-16.92,12.48 L-16.78,12.59 L-16.60,12.63 L-16.41,12.59 L-16.27,12.48 L-16.17,12.32 L-16.13,12.13 L-10.54,12.13 L-10.51,12.32 L-10.41,12.48 L-10.26,12.59 L-10.08,12.63 L-9.90,12.59 L-9.75,12.48 L-9.65,12.32 L-9.61,12.13 L-9.61,10.12 L-9.65,9.93 L-9.75,9.77 L-9.90,9.66 L-10.08,9.62 L-10.26,9.66 L-10.41,9.77 L-10.51,9.93 L-10.54,10.12 L-16.13,10.12 L-16.17,9.93 L-16.27,9.77 L-16.41,9.66 L-16.60,9.62 L-16.78,9.66 L-16.92,9.77 L-17.02,9.93 L-17.06,10.12 Z"/><path d="M-38.84,6.69 L-28.45,6.69 L-28.30,6.66 L-28.17,6.59 L-28.07,6.48 L-28.01,6.33 L-27.99,6.17 L-28.01,6.02 L-28.08,5.88 L-28.19,5.77 L-33.39,2.00 L-33.51,1.94 L-33.65,1.92 L-33.78,1.94 L-33.91,2.00 L-39.10,5.77 L-39.21,5.88 L-39.28,6.02 L-39.30,6.17 L-39.28,6.33 L-39.22,6.48 L-39.12,6.59 L-38.99,6.66 Z"/><path d="M-24.20,4.10 L-24.22,4.23 L-24.27,4.35 L-24.35,4.46 L-24.45,4.54 L-24.57,4.59 L-24.69,4.60 L-24.82,4.57 L-24.93,4.51 L-30.57,0.42 L-30.66,0.33 L-30.72,0.24 L-30.77,0.12 L-30.78,0.00 L-30.77,-0.12 L-30.72,-0.24 L-30.66,-0.33 L-30.57,-0.42 L-24.93,-4.51 L-24.82,-4.57 L-24.69,-4.60 L-24.57,-4.59 L-24.45,-4.54 L-24.35,-4.46 L-24.27,-4.35 L-24.22,-4.23 L-24.20,-4.10 Z"/><path d="M-42.57,-4.66 L-42.68,-4.72 L-42.80,-4.74 L-42.92,-4.74 L-43.03,-4.69 L-43.14,-4.62 L-43.21,-4.52 L-43.27,-4.40 L-43.29,-4.27 L-43.37,-2.14 L-43.40,0.00 L-43.37,2.14 L-43.29,4.27 L-43.27,4.40 L-43.21,4.52 L-43.14,4.62 L-43.03,4.69 L-42.92,4.74 L-42.80,4.74 L-42.68,4.72 L-42.57,4.66 L-36.72,0.42 L-36.63,0.33 L-36.57,0.24 L-36.53,0.12 L-36.51,0.00 L-36.53,-0.12 L-36.57,-0.24 L-36.63,-0.33 L-36.72,-0.42 Z"/><path d="M21.30,15.29 L20.75,15.41 L20.31,15.73 L20.01,16.21 L19.90,16.79 L20.01,17.38 L20.31,17.85 L20.75,18.18 L21.30,18.29 L32.51,18.29 L33.05,18.18 L33.49,17.85 L33.79,17.38 L33.90,16.79 L33.79,16.21 L33.49,15.73 L33.05,15.41 L32.51,15.29 Z"/><path d="M-38.48,-12.13 L-38.44,-12.32 L-38.34,-12.48 L-38.19,-12.59 L-38.01,-12.63 L-37.83,-12.59 L-37.68,-12.48 L-37.58,-12.32 L-37.55,-12.13 L-31.96,-12.13 L-31.92,-12.32 L-31.82,-12.48 L-31.68,-12.59 L-31.49,-12.63 L-31.31,-12.59 L-31.17,-12.48 L-31.07,-12.32 L-31.03,-12.13 L-31.03,-10.12 L-31.07,-9.93 L-31.17,-9.77 L-31.31,-9.66 L-31.49,-9.62 L-31.68,-9.66 L-31.82,-9.77 L-31.92,-9.93 L-31.96,-10.12 L-37.55,-10.12 L-37.58,-9.93 L-37.68,-9.77 L-37.83,-9.66 L-38.01,-9.62 L-38.19,-9.66 L-38.34,-9.77 L-38.44,-9.93 L-38.48,-10.12 Z"/><path d="M-17.06,-12.13 L-17.02,-12.32 L-16.92,-12.48 L-16.78,-12.59 L-16.60,-12.63 L-16.41,-12.59 L-16.27,-12.48 L-16.17,-12.32 L-16.13,-12.13 L-10.54,-12.13 L-10.51,-12.32 L-10.41,-12.48 L-10.26,-12.59 L-10.08,-12.63 L-9.90,-12.59 L-9.75,-12.48 L-9.65,-12.32 L-9.61,-12.13 L-9.61,-10.12 L-9.65,-9.93 L-9.75,-9.77 L-9.90,-9.66 L-10.08,-9.62 L-10.26,-9.66 L-10.41,-9.77 L-10.51,-9.93 L-10.54,-10.12 L-16.13,-10.12 L-16.17,-9.93 L-16.27,-9.77 L-16.41,-9.66 L-16.60,-9.62 L-16.78,-9.66 L-16.92,-9.77 L-17.02,-9.93 L-17.06,-10.12 Z"/><path d="M-38.84,-6.69 L-28.45,-6.69 L-28.30,-6.66 L-28.17,-6.59 L-28.07,-6.48 L-28.01,-6.33 L-27.99,-6.17 L-28.01,-6.02 L-28.08,-5.88 L-28.19,-5.77 L-33.39,-2.00 L-33.51,-1.94 L-33.65,-1.92 L-33.78,-1.94 L-33.91,-2.00 L-39.10,-5.77 L-39.21,-5.88 L-39.28,-6.02 L-39.30,-6.17 L-39.28,-6.33 L-39.22,-6.48 L-39.12,-6.59 L-38.99,-6.66 Z"/><path d="M21.30,-15.29 L20.75,-15.41 L20.31,-15.73 L20.01,-16.21 L19.90,-16.79 L20.01,-17.38 L20.31,-17.85 L20.75,-18.18 L21.30,-18.29 L32.51,-18.29 L33.05,-18.18 L33.49,-17.85 L33.79,-17.38 L33.90,-16.79 L33.79,-16.21 L33.49,-15.73 L33.05,-15.41 L32.51,-15.29 Z"/><circle cx="26.90" cy="0.00" r="5.00"/><circle cx="13.64" cy="15.25" r="1.50"/><circle cx="-22.34" cy="14.64" r="1.50"/><circle cx="17.59" cy="10.02" r="1.50"/><circle cx="8.51" cy="8.02" r="2.00"/><circle cx="13.64" cy="-15.25" r="1.50"/><circle cx="-22.34" cy="-14.64" r="1.50"/><circle cx="17.59" cy="-10.02" r="1.50"/><circle cx="8.51" cy="-8.02" r="2.00"/><circle cx="40.82" cy="-16.20" r="1.48"/><circle cx="36.14" cy="-10.44" r="1.48"/><circle cx="40.82" cy="16.20" r="1.48"/><circle cx="36.14" cy="10.44" r="1.48"/><circle cx="1.77" cy="-14.82" r="1.48"/><circle cx="2.51" cy="-7.43" r="1.48"/><circle cx="1.77" cy="14.82" r="1.48"/><circle cx="2.51" cy="7.43" r="1.48"/></g></svg>