<svg xmlns="http://www.w3.org/2000/svg" width="143.1mm" height="33.4mm" viewBox="-2.0 -16.7 143.1 33.4"><g fill="none" stroke="#111" stroke-width="0.35" stroke-linejoin="round"><path d="M3.96,-8.47 L6.08,-8.41 L8.20,-8.35 L10.32,-8.29 L12.44,-8.23 L12.54,-8.22 L12.64,-8.18 L12.72,-8.13 L12.80,-8.07 L12.86,-7.99 L12.90,-7.90 L12.92,-7.80 L12.93,-7.70 L12.95,-7.18 L13.07,-6.68 L13.57,-5.82 L14.35,-5.22 L14.83,-5.03 L15.34,-4.95 L15.87,-4.96 L16.36,-5.08 L17.22,-5.57 L17.84,-6.35 L18.02,-6.83 L18.11,-7.34 L18.13,-7.59 L18.18,-7.78 L18.30,-7.93 L18.46,-8.02 L18.65,-8.06 L20.65,-8.00 L22.65,-7.94 L24.36,-7.18 L25.96,-7.10 L27.56,-7.00 L29.16,-6.88 L30.76,-6.74 L32.36,-6.58 L33.96,-6.41 L35.56,-6.22 L37.16,-6.02 L38.76,-5.81 L40.36,-5.59 L41.96,-5.37 L43.56,-5.15 L45.16,-4.93 L46.77,-4.71 L48.37,-4.50 L49.97,-4.29 L51.57,-4.10 L53.17,-3.91 L54.77,-3.74 L56.37,-3.59 L57.97,-3.45 L59.57,-3.33 L61.17,-3.23 L62.77,-3.15 L64.37,-3.08 L65.97,-3.04 L67.57,-3.01 L69.17,-3.00 L70.77,-3.02 L72.37,-3.04 L73.97,-3.08 L75.57,-3.14 L77.17,-3.21 L78.77,-3.29 L80.37,-3.38 L81.97,-3.48 L83.57,-3.58 L85.18,-3.68 L86.78,-3.79 L88.38,-3.90 L89.98,-4.00 L91.58,-4.10 L93.18,-4.19 L94.78,-4.27 L96.38,-4.35 L97.98,-4.41 L99.58,-4.46 L101.30,-4.58 L103.00,-4.85 L104.68,-5.27 L106.32,-5.83 L107.91,-6.54 L109.46,-7.39 L111.12,-9.19 L112.88,-10.43 L115.95,-12.79 L116.42,-13.07 L116.95,-13.23 L117.49,-13.26 L118.04,-13.15 L118.54,-12.91 L118.96,-12.57 L119.29,-12.13 L119.51,-11.62 L120.01,-10.47 L120.77,-9.50 L121.76,-8.77 L122.92,-8.30 L124.17,-8.15 L125.39,-8.33 L126.52,-8.81 L127.51,-9.58 L129.01,-11.09 L130.51,-12.61 L132.00,-14.13 L132.48,-14.49 L133.02,-14.68 L133.60,-14.72 L134.18,-14.58 L135.67,-13.80 L136.96,-12.75 L138.03,-11.47 L138.83,-9.99 L138.98,-9.42 L138.95,-8.84 L138.76,-8.29 L138.41,-7.81 L136.66,-6.03 L134.90,-4.25 L134.14,-3.30 L133.60,-2.26 L133.28,-1.14 L133.17,0.00 L133.29,1.15 L133.63,2.26 L134.19,3.30 L134.96,4.23 L136.74,5.99 L138.52,7.74 L138.88,8.22 L139.07,8.76 L139.11,9.34 L138.97,9.92 L138.19,11.41 L137.14,12.70 L135.86,13.77 L134.38,14.57 L133.81,14.72 L133.23,14.69 L132.68,14.50 L132.20,14.15 L130.68,12.66 L129.17,11.16 L127.65,9.66 L126.65,8.91 L125.51,8.44 L124.28,8.28 L123.04,8.45 L121.88,8.93 L120.90,9.68 L120.15,10.66 L119.67,11.82 L119.46,12.33 L119.14,12.77 L118.72,13.12 L118.22,13.36 L117.68,13.48 L117.13,13.46 L116.61,13.31 L116.13,13.04 L114.22,11.61 L112.44,10.40 L110.56,9.34 L108.93,7.70 L107.32,7.02 L105.66,6.48 L103.97,6.08 L102.26,5.83 L100.53,5.73 L98.92,5.69 L97.32,5.63 L95.71,5.56 L94.11,5.47 L92.50,5.37 L90.89,5.26 L89.29,5.15 L87.68,5.02 L86.08,4.90 L84.47,4.77 L82.86,4.64 L81.26,4.52 L79.65,4.41 L78.05,4.30 L76.44,4.21 L74.83,4.13 L73.23,4.08 L71.62,4.04 L70.02,4.02 L68.41,4.02 L66.80,4.05 L65.20,4.11 L63.59,4.19 L61.99,4.29 L60.38,4.43 L58.77,4.58 L57.17,4.77 L55.56,4.97 L53.96,5.20 L52.35,5.45 L50.75,5.72 L49.14,6.00 L47.53,6.30 L45.93,6.61 L44.32,6.92 L42.72,7.24 L41.11,7.55 L39.50,7.86 L37.90,8.17 L36.29,8.46 L34.69,8.74 L33.08,9.01 L31.47,9.25 L29.87,9.47 L28.26,9.66 L26.66,9.83 L25.05,9.96 L23.44,10.07 L22.74,11.10 L21.99,11.19 L21.24,11.32 L20.50,11.49 L18.47,12.00 L16.45,12.52 L14.43,13.03 L12.41,13.55 L10.38,14.06 L8.36,14.57 L7.51,14.66 L6.69,14.51 L5.94,14.14 L5.30,13.57 L4.86,12.84 L4.65,12.03 L4.66,11.19 L4.92,10.37 L5.92,8.27 L6.92,6.16 L6.98,6.07 L7.06,5.99 L7.16,5.93 L7.26,5.89 L7.55,5.77 L7.79,5.58 L7.95,5.32 L8.03,5.01 L8.01,4.70 L7.90,4.42 L7.71,4.18 L7.45,4.00 L7.15,3.92 L6.84,3.94 L6.55,4.04 L6.31,4.24 L6.22,4.31 L6.12,4.36 L6.01,4.39 L5.90,4.39 L2.95,4.17 L0.00,3.94 L0.20,1.32 L0.40,-1.30 L0.48,-1.63 L0.66,-1.90 L0.91,-2.10 L1.22,-2.21 L2.16,-2.55 L2.92,-3.15 L3.45,-3.97 L3.69,-4.94 Z"/><circle cx="15.21" cy="5.11" r="1.48"/><circle cx="124.20" cy="0.07" r="3.50"/><circle cx="9.57" cy="9.94" r="1.48"/><circle cx="8.32" cy="0.07" r="2.00"/><circle cx="132.20" cy="-9.43" r="1.60"/><circle cx="116.20" cy="-9.43" r="1.60"/><circle cx="132.20" cy="9.57" r="1.60"/><circle cx="116.20" cy="9.57" r="1.60"/></g></svg>