<svg xmlns="http://www.w3.org/2000/svg" width="159.2mm" height="46.4mm" viewBox="-79.6 -23.2 159.2 46.4"><g fill="none" stroke="#111" stroke-width="0.35" stroke-linejoin="round"><path d="M11.71,21.15 L11.59,21.18 L11.46,21.20 L11.34,21.21 L11.21,21.22 L-20.45,21.22 L-20.58,21.21 L-20.71,21.20 L-20.83,21.18 L-20.96,21.15 L-43.84,14.82 L-44.46,14.67 L-45.08,14.56 L-45.71,14.50 L-46.35,14.48 L-50.85,14.48 L-51.43,14.57 L-51.96,14.84 L-52.38,15.25 L-52.67,15.79 L-53.17,16.72 L-53.91,17.44 L-54.82,17.91 L-55.85,18.07 L-56.87,17.91 L-57.79,17.44 L-58.52,16.72 L-59.03,15.79 L-59.32,15.25 L-59.74,14.84 L-60.26,14.57 L-60.85,14.48 L-72.94,14.48 L-73.33,14.45 L-73.72,14.37 L-74.08,14.24 L-74.43,14.05 L-77.62,12.08 L-77.62,10.08 L-76.41,10.08 L-76.06,10.05 L-75.73,9.96 L-75.42,9.80 L-75.13,9.59 L-71.84,6.60 L-71.42,6.13 L-71.11,5.59 L-70.92,4.99 L-70.85,4.35 L-70.85,-4.35 L-70.92,-4.99 L-71.11,-5.59 L-71.42,-6.13 L-71.84,-6.60 L-75.13,-9.59 L-75.42,-9.80 L-75.73,-9.96 L-76.06,-10.05 L-76.41,-10.08 L-77.62,-10.08 L-77.62,-12.08 L-74.43,-14.05 L-74.08,-14.24 L-73.72,-14.37 L-73.33,-14.45 L-72.94,-14.48 L-60.85,-14.48 L-60.26,-14.57 L-59.74,-14.84 L-59.32,-15.25 L-59.03,-15.79 L-58.52,-16.72 L-57.79,-17.44 L-56.87,-17.91 L-55.85,-18.07 L-54.82,-17.91 L-53.91,-17.44 L-53.17,-16.72 L-52.67,-15.79 L-52.38,-15.25 L-51.96,-14.84 L-51.43,-14.57 L-50.85,-14.48 L-46.35,-14.48 L-45.71,-14.50 L-45.08,-14.56 L-44.46,-14.67 L-43.84,-14.82 L-20.96,-21.15 L-20.83,-21.18 L-20.71,-21.20 L-20.58,-21.21 L-20.45,-21.22 L11.21,-21.22 L11.34,-21.21 L11.46,-21.20 L11.59,-21.18 L11.71,-21.15 L33.98,-14.99 L34.90,-14.77 L35.84,-14.61 L36.79,-14.51 L37.74,-14.48 L73.60,-14.48 L74.22,-14.42 L74.81,-14.25 L75.35,-13.98 L75.83,-13.62 L76.24,-13.17 L76.58,-12.66 L76.82,-12.08 L76.96,-11.46 L77.18,-9.61 L77.37,-7.76 L77.51,-5.90 L77.62,-4.04 L77.61,-3.84 L77.56,-3.65 L77.47,-3.47 L77.35,-3.30 L77.20,-3.17 L77.03,-3.08 L76.85,-3.02 L76.65,-3.00 L66.57,-3.00 L65.99,-2.93 L65.44,-2.76 L64.95,-2.48 L64.52,-2.12 L64.16,-1.67 L63.90,-1.17 L63.73,-0.60 L63.67,0.00 L63.73,0.60 L63.90,1.17 L64.16,1.67 L64.52,2.12 L64.95,2.48 L65.44,2.76 L65.99,2.93 L66.57,3.00 L76.65,3.00 L76.85,3.02 L77.03,3.08 L77.20,3.17 L77.35,3.30 L77.47,3.47 L77.56,3.65 L77.61,3.84 L77.62,4.04 L77.51,5.90 L77.37,7.76 L77.18,9.61 L76.96,11.46 L76.82,12.08 L76.58,12.66 L76.24,13.17 L75.83,13.62 L75.35,13.98 L74.81,14.25 L74.22,14.42 L73.60,14.48 L37.74,14.48 L36.79,14.51 L35.84,14.61 L34.90,14.77 L33.98,14.99 Z"/><path d="M-49.54,12.08 L-49.50,12.28 L-49.40,12.43 L-49.24,12.54 L-49.06,12.58 L-48.87,12.54 L-48.71,12.43 L-48.61,12.28 L-48.57,12.08 L-43.73,12.08 L-43.69,12.28 L-43.59,12.43 L-43.43,12.54 L-43.24,12.58 L-43.06,12.54 L-42.90,12.43 L-42.80,12.28 L-42.76,12.08 L-42.76,10.08 L-42.80,9.89 L-42.90,9.73 L-43.06,9.62 L-43.24,9.59 L-43.43,9.62 L-43.59,9.73 L-43.69,9.89 L-43.73,10.08 L-48.57,10.08 L-48.61,9.89 L-48.71,9.73 L-48.87,9.62 L-49.06,9.59 L-49.24,9.62 L-49.40,9.73 L-49.50,9.89 L-49.54,10.08 Z"/><path d="M-49.54,-12.08 L-49.50,-12.28 L-49.40,-12.43 L-49.24,-12.54 L-49.06,-12.58 L-48.87,-12.54 L-48.71,-12.43 L-48.61,-12.28 L-48.57,-12.08 L-43.73,-12.08 L-43.69,-12.28 L-43.59,-12.43 L-43.43,-12.54 L-43.24,-12.58 L-43.06,-12.54 L-42.90,-12.43 L-42.80,-12.28 L-42.76,-12.08 L-42.76,-10.08 L-42.80,-9.89 L-42.90,-9.73 L-43.06,-9.62 L-43.24,-9.59 L-43.43,-9.62 L-43.59,-9.73 L-43.69,-9.89 L-43.73,-10.08 L-48.57,-10.08 L-48.61,-9.89 L-48.71,-9.73 L-48.87,-9.62 L-49.06,-9.59 L-49.24,-9.62 L-49.40,-9.73 L-49.50,-9.89 L-49.54,-10.08 Z"/><path d="M11.84,-18.22 L12.22,-18.14 L12.53,-17.93 L12.74,-17.61 L12.81,-17.22 L12.74,-16.84 L12.53,-16.52 L12.22,-16.30 L11.84,-16.23 L-21.09,-16.23 L-21.47,-16.30 L-21.77,-16.52 L-21.98,-16.84 L-22.06,-17.22 L-21.98,-17.61 L-21.77,-17.93 L-21.47,-18.14 L-21.09,-18.22 Z"/><path d="M11.84,18.22 L12.22,18.14 L12.53,17.93 L12.74,17.61 L12.81,17.22 L12.74,16.84 L12.53,16.52 L12.22,16.30 L11.84,16.23 L-21.09,16.23 L-21.47,16.30 L-21.77,16.52 L-21.98,16.84 L-22.06,17.22 L-21.98,17.61 L-21.77,17.93 L-21.47,18.14 L-21.09,18.22 Z"/><path d="M-4.19,-1.34 L6.98,-7.09 L7.24,-7.29 L7.42,-7.56 L7.51,-7.88 L7.49,-8.22 L7.36,-8.53 L7.15,-8.77 L6.87,-8.93 L6.54,-8.99 L-15.79,-8.99 L-16.11,-8.93 L-16.39,-8.77 L-16.60,-8.53 L-16.73,-8.22 L-16.75,-7.88 L-16.67,-7.56 L-16.49,-7.29 L-16.22,-7.09 L-5.06,-1.34 L-4.84,-1.26 L-4.62,-1.23 L-4.40,-1.26 Z"/><path d="M12.81,6.25 L12.81,-6.25 L12.78,-6.51 L12.69,-6.74 L12.55,-6.94 L12.35,-7.10 L12.13,-7.21 L11.89,-7.25 L11.65,-7.23 L11.41,-7.15 L-0.72,-0.89 L-0.95,-0.74 L-1.11,-0.52 L-1.22,-0.28 L-1.26,0.00 L-1.22,0.28 L-1.11,0.52 L-0.95,0.74 L-0.72,0.89 L11.41,7.15 L11.65,7.23 L11.89,7.25 L12.13,7.21 L12.35,7.10 L12.55,6.94 L12.69,6.74 L12.78,6.51 Z"/><path d="M-4.19,1.34 L6.98,7.09 L7.24,7.29 L7.42,7.56 L7.51,7.88 L7.49,8.22 L7.36,8.53 L7.15,8.77 L6.87,8.93 L6.54,8.99 L-15.79,8.99 L-16.11,8.93 L-16.39,8.77 L-16.60,8.53 L-16.73,8.22 L-16.75,7.88 L-16.67,7.56 L-16.49,7.29 L-16.22,7.09 L-5.06,1.34 L-4.84,1.26 L-4.62,1.23 L-4.40,1.26 Z"/><path d="M-28.84,5.26 L-28.84,-5.26 L-28.69,-6.03 L-28.27,-6.67 L-27.66,-7.10 L-26.90,-7.25 L-21.32,-7.25 L-21.09,-7.24 L-20.87,-7.20 L-20.66,-7.13 L-20.45,-7.04 L-8.52,-0.89 L-8.30,-0.74 L-8.13,-0.52 L-8.02,-0.28 L-7.99,0.00 L-8.02,0.28 L-8.13,0.52 L-8.30,0.74 L-8.52,0.89 L-20.45,7.04 L-20.66,7.13 L-20.87,7.20 L-21.09,7.24 L-21.32,7.25 L-26.90,7.25 L-27.66,7.10 L-28.27,6.67 L-28.69,6.03 Z"/><path d="M65.37,-10.98 L65.74,-10.90 L66.05,-10.69 L66.26,-10.37 L66.34,-9.98 L66.26,-9.60 L66.05,-9.28 L65.74,-9.06 L65.37,-8.99 L43.57,-8.99 L43.19,-9.06 L42.89,-9.28 L42.68,-9.60 L42.60,-9.98 L42.68,-10.37 L42.89,-10.69 L43.19,-10.90 L43.57,-10.98 Z"/><path d="M38.94,5.93 L32.62,0.78 L32.47,0.62 L32.35,0.44 L32.28,0.22 L32.25,0.00 L32.28,-0.22 L32.35,-0.44 L32.47,-0.62 L32.62,-0.78 L38.94,-5.93 L39.14,-6.06 L39.35,-6.13 L39.57,-6.15 L39.80,-6.11 L55.20,-1.85 L55.49,-1.72 L55.72,-1.50 L55.87,-1.21 L55.92,-0.89 L55.92,0.89 L55.87,1.21 L55.72,1.50 L55.49,1.72 L55.20,1.85 L39.80,6.11 L39.57,6.15 L39.35,6.13 L39.14,6.06 Z"/><path d="M29.54,8.95 L29.48,8.97 L29.41,8.98 L29.35,8.98 L29.29,8.99 L23.42,8.99 L23.12,8.94 L22.85,8.80 L22.64,8.59 L22.50,8.32 L22.45,8.01 L22.49,7.71 L22.61,7.43 L22.82,7.20 L29.50,1.76 L29.78,1.60 L30.10,1.55 L30.41,1.60 L30.70,1.76 L35.48,5.66 L35.67,5.86 L35.79,6.10 L35.85,6.37 L35.83,6.64 L35.74,6.90 L35.58,7.13 L35.38,7.30 L35.13,7.40 Z"/><path d="M29.54,-8.95 L35.13,-7.40 L35.38,-7.30 L35.58,-7.13 L35.74,-6.90 L35.83,-6.64 L35.85,-6.37 L35.79,-6.10 L35.67,-5.86 L35.48,-5.66 L30.70,-1.76 L30.41,-1.60 L30.10,-1.55 L29.78,-1.60 L29.50,-1.76 L22.82,-7.20 L22.61,-7.43 L22.49,-7.71 L22.45,-8.01 L22.50,-8.32 L22.64,-8.59 L22.85,-8.80 L23.12,-8.94 L23.42,-8.99 L29.29,-8.99 L29.35,-8.98 L29.41,-8.98 L29.48,-8.97 Z"/><path d="M18.38,-6.21 L18.42,-6.49 L18.53,-6.74 L18.70,-6.95 L18.93,-7.11 L19.19,-7.19 L19.46,-7.20 L19.72,-7.13 L19.95,-6.99 L27.57,-0.78 L27.73,-0.62 L27.84,-0.44 L27.92,-0.22 L27.94,0.00 L27.92,0.22 L27.84,0.44 L27.73,0.62 L27.57,0.78 L19.95,6.99 L19.72,7.13 L19.46,7.20 L19.19,7.19 L18.93,7.11 L18.70,6.95 L18.53,6.74 L18.42,6.49 L18.38,6.21 Z"/><path d="M65.37,10.98 L65.74,10.90 L66.05,10.69 L66.26,10.37 L66.34,9.98 L66.26,9.60 L66.05,9.28 L65.74,9.06 L65.37,8.99 L43.57,8.99 L43.19,9.06 L42.89,9.28 L42.68,9.60 L42.60,9.98 L42.68,10.37 L42.89,10.69 L43.19,10.90 L43.57,10.98 Z"/><path d="M71.70,-6.24 L71.41,-6.18 L71.18,-6.02 L71.03,-5.78 L70.97,-5.49 L71.03,-5.20 L71.18,-4.96 L71.41,-4.80 L71.70,-4.74 L74.60,-4.74 L74.88,-4.80 L75.12,-4.96 L75.27,-5.20 L75.33,-5.49 L75.27,-5.78 L75.12,-6.02 L74.88,-6.18 L74.60,-6.24 Z"/><path d="M71.70,6.24 L71.41,6.18 L71.18,6.02 L71.03,5.78 L70.97,5.49 L71.03,5.20 L71.18,4.96 L71.41,4.80 L71.70,4.74 L74.60,4.74 L74.88,4.80 L75.12,4.96 L75.27,5.20 L75.33,5.49 L75.27,5.78 L75.12,6.02 L74.88,6.18 L74.60,6.24 Z"/><path d="M-69.87,12.08 L-69.83,12.28 L-69.73,12.43 L-69.57,12.54 L-69.39,12.58 L-69.20,12.54 L-69.04,12.43 L-68.94,12.28 L-68.90,12.08 L-65.03,12.08 L-64.99,12.28 L-64.88,12.43 L-64.73,12.54 L-64.54,12.58 L-64.35,12.54 L-64.20,12.43 L-64.10,12.28 L-64.06,12.08 L-64.06,10.08 L-64.10,9.89 L-64.20,9.73 L-64.35,9.62 L-64.54,9.59 L-64.73,9.62 L-64.88,9.73 L-64.99,9.89 L-65.03,10.08 L-68.90,10.08 L-68.94,9.89 L-69.04,9.73 L-69.20,9.62 L-69.39,9.59 L-69.57,9.62 L-69.73,9.73 L-69.83,9.89 L-69.87,10.08 Z"/><path d="M-69.87,-12.08 L-69.83,-12.28 L-69.73,-12.43 L-69.57,-12.54 L-69.39,-12.58 L-69.20,-12.54 L-69.04,-12.43 L-68.94,-12.28 L-68.90,-12.08 L-65.03,-12.08 L-64.99,-12.28 L-64.88,-12.43 L-64.73,-12.54 L-64.54,-12.58 L-64.35,-12.54 L-64.20,-12.43 L-64.10,-12.28 L-64.06,-12.08 L-64.06,-10.08 L-64.10,-9.89 L-64.20,-9.73 L-64.35,-9.62 L-64.54,-9.59 L-64.73,-9.62 L-64.88,-9.73 L-64.99,-9.89 L-65.03,-10.08 L-68.90,-10.08 L-68.94,-9.89 L-69.04,-9.73 L-69.20,-9.62 L-69.39,-9.59 L-69.57,-9.62 L-69.73,-9.73 L-69.83,-9.89 L-69.87,-10.08 Z"/><circle cx="-55.85" cy="-14.58" r="1.50"/><circle cx="-32.66" cy="-14.60" r="1.50"/><circle cx="23.11" cy="-14.60" r="1.50"/><circle cx="-55.85" cy="14.58" r="1.50"/><circle cx="-32.66" cy="14.60" r="1.50"/><circle cx="23.11" cy="14.60" r="1.50"/><circle cx="73.60" cy="-10.98" r="1.50"/><circle cx="73.60" cy="10.98" r="1.50"/></g></svg>