<svg xmlns="http://www.w3.org/2000/svg" width="106.6mm" height="52.5mm" viewBox="-53.3 -26.2 106.6 52.5"><g fill="none" stroke="#111" stroke-width="0.35" stroke-linejoin="round"><path d="M-40.90,-24.23 L-40.30,-24.13 L-39.78,-23.86 L-39.37,-23.43 L-39.09,-22.87 L-37.07,-16.60 L-36.80,-16.04 L-36.38,-15.61 L-35.86,-15.34 L-35.27,-15.24 L-24.00,-15.24 L-23.41,-15.34 L-22.89,-15.61 L-22.47,-16.04 L-22.20,-16.60 L-20.18,-22.87 L-19.90,-23.43 L-19.49,-23.86 L-18.96,-24.13 L-18.37,-24.23 L-16.83,-24.23 L-16.42,-24.18 L-16.02,-24.04 L-15.67,-23.81 L-15.37,-23.51 L-13.62,-21.53 L-11.68,-19.77 L-9.58,-18.23 L-7.32,-16.93 L-6.79,-16.76 L-6.24,-16.76 L-5.72,-16.91 L-5.25,-17.23 L-4.58,-17.70 L-3.83,-17.99 L-3.03,-18.09 L-2.23,-17.98 L-1.48,-17.67 L-0.82,-17.18 L-0.30,-16.55 L0.07,-15.80 L0.35,-15.26 L0.77,-14.85 L1.28,-14.58 L1.86,-14.49 L47.33,-14.49 L47.94,-14.43 L48.52,-14.26 L49.05,-13.99 L49.52,-13.63 L49.93,-13.18 L50.26,-12.67 L50.50,-12.09 L50.63,-11.46 L50.85,-9.61 L51.04,-7.76 L51.18,-5.90 L51.28,-4.04 L51.27,-3.84 L51.22,-3.65 L51.14,-3.47 L51.02,-3.31 L50.87,-3.18 L50.71,-3.08 L50.52,-3.02 L50.33,-3.00 L40.42,-3.00 L39.84,-2.94 L39.30,-2.76 L38.82,-2.49 L38.39,-2.12 L38.04,-1.68 L37.78,-1.17 L37.61,-0.60 L37.56,0.00 L37.61,0.60 L37.78,1.17 L38.04,1.68 L38.39,2.12 L38.82,2.49 L39.30,2.76 L39.84,2.94 L40.42,3.00 L50.33,3.00 L50.52,3.02 L50.71,3.08 L50.87,3.18 L51.02,3.31 L51.14,3.47 L51.22,3.65 L51.27,3.84 L51.28,4.04 L51.18,5.90 L51.04,7.76 L50.85,9.61 L50.63,11.46 L50.50,12.09 L50.26,12.67 L49.93,13.18 L49.52,13.63 L49.05,13.99 L48.52,14.26 L47.94,14.43 L47.33,14.49 L1.86,14.49 L1.28,14.58 L0.77,14.85 L0.35,15.26 L0.07,15.80 L-0.30,16.55 L-0.82,17.18 L-1.48,17.67 L-2.23,17.98 L-3.03,18.09 L-3.83,17.99 L-4.58,17.70 L-5.25,17.23 L-5.72,16.91 L-6.24,16.76 L-6.79,16.76 L-7.32,16.93 L-9.58,18.23 L-11.68,19.77 L-13.62,21.53 L-15.37,23.51 L-15.67,23.81 L-16.02,24.04 L-16.42,24.18 L-16.83,24.23 L-18.37,24.23 L-18.96,24.13 L-19.49,23.86 L-19.90,23.43 L-20.18,22.87 L-22.20,16.60 L-22.47,16.04 L-22.89,15.61 L-23.41,15.34 L-24.00,15.24 L-35.27,15.24 L-35.86,15.34 L-36.38,15.61 L-36.80,16.04 L-37.07,16.60 L-39.09,22.87 L-39.37,23.43 L-39.78,23.86 L-40.30,24.13 L-40.90,24.23 L-42.44,24.23 L-42.85,24.18 L-43.25,24.04 L-43.60,23.81 L-43.90,23.51 L-45.16,22.05 L-46.52,20.69 L-47.97,19.46 L-49.52,18.34 L-50.30,17.65 L-50.88,16.77 L-51.21,15.77 L-51.28,14.69 L-50.83,7.82 L-50.66,7.04 L-50.27,6.37 L-49.70,5.86 L-48.99,5.56 L-48.23,5.51 L-47.51,5.70 L-46.88,6.13 L-46.39,6.75 L-46.14,7.07 L-45.82,7.28 L-45.44,7.37 L-45.05,7.33 L-44.69,7.16 L-44.42,6.89 L-44.23,6.53 L-44.17,6.12 L-44.17,-6.12 L-44.23,-6.53 L-44.42,-6.89 L-44.69,-7.16 L-45.05,-7.33 L-45.44,-7.37 L-45.82,-7.28 L-46.14,-7.07 L-46.39,-6.75 L-46.88,-6.13 L-47.51,-5.70 L-48.23,-5.51 L-48.99,-5.56 L-49.70,-5.86 L-50.27,-6.37 L-50.66,-7.04 L-50.83,-7.82 L-51.28,-14.69 L-51.21,-15.77 L-50.88,-16.77 L-50.30,-17.65 L-49.52,-18.34 L-47.97,-19.46 L-46.52,-20.69 L-45.16,-22.05 L-43.90,-23.51 L-43.60,-23.81 L-43.25,-24.04 L-42.85,-24.18 L-42.44,-24.23 Z"/><path d="M26.96,-7.29 L27.12,-7.53 L27.22,-7.80 L27.23,-8.09 L27.16,-8.38 L27.02,-8.63 L26.81,-8.82 L26.56,-8.95 L26.28,-8.99 L16.43,-8.99 L16.15,-8.95 L15.90,-8.82 L15.69,-8.63 L15.54,-8.38 L15.48,-8.09 L15.49,-7.80 L15.58,-7.53 L15.75,-7.29 L20.68,-2.12 L21.00,-1.90 L21.35,-1.83 L21.71,-1.90 L22.03,-2.12 Z"/><path d="M14.40,-5.87 L14.18,-6.05 L13.92,-6.15 L13.64,-6.16 L13.36,-6.09 L13.12,-5.94 L12.94,-5.72 L12.82,-5.46 L12.78,-5.17 L12.78,5.17 L12.82,5.46 L12.94,5.72 L13.12,5.94 L13.36,6.09 L13.64,6.16 L13.92,6.15 L14.18,6.05 L14.40,5.87 L19.33,0.71 L19.45,0.55 L19.54,0.38 L19.59,0.20 L19.61,-0.00 L19.59,-0.20 L19.54,-0.38 L19.45,-0.55 L19.33,-0.71 Z"/><path d="M28.30,-5.87 L28.53,-6.05 L28.79,-6.15 L29.07,-6.16 L29.34,-6.09 L29.59,-5.94 L29.77,-5.72 L29.89,-5.46 L29.93,-5.17 L29.93,5.17 L29.89,5.46 L29.77,5.72 L29.59,5.94 L29.34,6.09 L29.07,6.16 L28.79,6.15 L28.53,6.05 L28.30,5.87 L23.38,0.71 L23.26,0.55 L23.17,0.38 L23.12,0.20 L23.10,-0.00 L23.12,-0.20 L23.17,-0.38 L23.26,-0.55 L23.38,-0.71 Z"/><path d="M-6.12,4.50 L-6.47,4.40 L-6.75,4.18 L-6.93,3.87 L-7.00,3.50 L-7.00,-3.50 L-6.93,-3.87 L-6.75,-4.18 L-6.47,-4.40 L-6.12,-4.50 L6.98,-5.60 L7.18,-5.60 L7.37,-5.55 L7.55,-5.46 L7.70,-5.34 L7.83,-5.18 L7.93,-5.01 L7.99,-4.81 L8.01,-4.61 L8.01,4.61 L7.99,4.81 L7.93,5.01 L7.83,5.18 L7.70,5.34 L7.55,5.46 L7.37,5.55 L7.18,5.60 L6.98,5.60 Z"/><path d="M26.96,7.29 L27.12,7.53 L27.22,7.80 L27.23,8.09 L27.16,8.38 L27.02,8.63 L26.81,8.82 L26.56,8.95 L26.28,8.99 L16.43,8.99 L16.15,8.95 L15.90,8.82 L15.69,8.63 L15.54,8.38 L15.48,8.09 L15.49,7.80 L15.58,7.53 L15.75,7.29 L20.68,2.12 L21.00,1.90 L21.35,1.83 L21.71,1.90 L22.03,2.12 Z"/><path d="M45.46,-6.24 L45.18,-6.19 L44.95,-6.03 L44.80,-5.79 L44.74,-5.50 L44.80,-5.20 L44.95,-4.97 L45.18,-4.81 L45.46,-4.75 L48.31,-4.75 L48.59,-4.81 L48.82,-4.97 L48.97,-5.20 L49.03,-5.50 L48.97,-5.79 L48.82,-6.03 L48.59,-6.19 L48.31,-6.24 Z"/><path d="M45.46,6.24 L45.18,6.19 L44.95,6.03 L44.80,5.79 L44.74,5.50 L44.80,5.20 L44.95,4.97 L45.18,4.81 L45.46,4.75 L48.31,4.75 L48.59,4.81 L48.82,4.97 L48.97,5.20 L49.03,5.50 L48.97,5.79 L48.82,6.03 L48.59,6.19 L48.31,6.24 Z"/><circle cx="-29.63" cy="0.00" r="5.00"/><circle cx="-48.46" cy="-7.99" r="1.00"/><circle cx="-11.34" cy="-8.00" r="1.00"/><circle cx="-3.21" cy="-14.60" r="1.50"/><circle cx="11.82" cy="-9.99" r="1.10"/><circle cx="30.88" cy="-9.99" r="1.10"/><circle cx="47.33" cy="-10.99" r="1.50"/><circle cx="-48.46" cy="7.99" r="1.00"/><circle cx="-11.34" cy="8.00" r="1.00"/><circle cx="-3.21" cy="14.60" r="1.50"/><circle cx="11.82" cy="9.99" r="1.10"/><circle cx="30.88" cy="9.99" r="1.10"/><circle cx="47.33" cy="10.99" r="1.50"/><circle cx="36.96" cy="-10.33" r="1.48"/><circle cx="36.96" cy="10.33" r="1.48"/><circle cx="2.89" cy="-7.39" r="1.48"/><circle cx="2.89" cy="7.39" r="1.48"/></g></svg>