<svg xmlns="http://www.w3.org/2000/svg" width="142.8mm" height="33.4mm" viewBox="-2.0 -16.7 142.8 33.4"><g fill="none" stroke="#111" stroke-width="0.35" stroke-linejoin="round"><path d="M3.96,-8.47 L6.08,-8.41 L8.20,-8.35 L10.32,-8.29 L12.44,-8.23 L12.54,-8.22 L12.64,-8.18 L12.72,-8.13 L12.80,-8.07 L12.86,-7.99 L12.90,-7.90 L12.92,-7.80 L12.93,-7.70 L12.95,-7.18 L13.07,-6.68 L13.57,-5.82 L14.35,-5.22 L14.83,-5.03 L15.34,-4.95 L15.87,-4.96 L16.36,-5.08 L17.22,-5.57 L17.84,-6.35 L18.02,-6.83 L18.11,-7.34 L18.13,-7.59 L18.18,-7.78 L18.30,-7.93 L18.46,-8.02 L18.65,-8.06 L20.65,-8.00 L22.65,-7.94 L24.35,-6.17 L25.95,-6.11 L27.54,-6.05 L29.14,-5.97 L30.73,-5.88 L32.33,-5.78 L33.92,-5.67 L35.51,-5.56 L37.11,-5.44 L38.70,-5.32 L40.30,-5.19 L41.89,-5.07 L43.48,-4.94 L45.08,-4.81 L46.67,-4.68 L48.27,-4.56 L49.86,-4.44 L51.46,-4.32 L53.05,-4.21 L54.64,-4.11 L56.24,-4.01 L57.83,-3.93 L59.43,-3.85 L61.02,-3.78 L62.61,-3.72 L64.21,-3.67 L65.80,-3.63 L67.40,-3.60 L68.99,-3.57 L70.59,-3.56 L72.18,-3.56 L73.77,-3.56 L75.37,-3.57 L76.96,-3.58 L78.56,-3.61 L80.15,-3.63 L81.74,-3.66 L83.34,-3.69 L84.93,-3.73 L86.53,-3.76 L88.12,-3.80 L89.72,-3.83 L91.31,-3.86 L92.90,-3.89 L94.50,-3.91 L96.09,-3.93 L97.69,-3.94 L99.28,-3.95 L100.99,-4.02 L102.69,-4.22 L104.36,-4.56 L105.99,-5.03 L107.58,-5.63 L109.12,-6.35 L110.78,-9.19 L112.54,-10.43 L115.61,-12.79 L116.08,-13.07 L116.61,-13.23 L117.15,-13.26 L117.70,-13.15 L118.20,-12.91 L118.62,-12.57 L118.95,-12.13 L119.17,-11.62 L119.67,-10.47 L120.43,-9.50 L121.42,-8.77 L122.58,-8.30 L123.83,-8.15 L125.05,-8.33 L126.18,-8.81 L127.17,-9.58 L128.67,-11.09 L130.17,-12.61 L131.66,-14.13 L132.14,-14.49 L132.68,-14.68 L133.26,-14.72 L133.84,-14.58 L135.33,-13.80 L136.62,-12.75 L137.69,-11.47 L138.49,-9.99 L138.64,-9.42 L138.61,-8.84 L138.42,-8.29 L138.07,-7.81 L136.32,-6.03 L134.56,-4.25 L133.80,-3.30 L133.26,-2.26 L132.94,-1.14 L132.83,0.00 L132.95,1.15 L133.29,2.26 L133.85,3.30 L134.62,4.23 L136.40,5.99 L138.18,7.74 L138.54,8.22 L138.73,8.76 L138.77,9.34 L138.63,9.92 L137.85,11.41 L136.80,12.70 L135.52,13.77 L134.04,14.57 L133.47,14.72 L132.89,14.69 L132.34,14.50 L131.86,14.15 L130.34,12.66 L128.82,11.16 L127.31,9.66 L126.31,8.91 L125.16,8.44 L123.94,8.28 L122.70,8.45 L121.54,8.93 L120.56,9.68 L119.81,10.66 L119.33,11.82 L119.12,12.33 L118.80,12.77 L118.38,13.12 L117.88,13.36 L117.34,13.48 L116.79,13.46 L116.27,13.31 L115.79,13.04 L113.88,11.61 L112.10,10.40 L110.22,9.34 L108.60,6.61 L106.99,6.04 L105.34,5.59 L103.66,5.28 L101.95,5.09 L100.23,5.04 L98.63,5.05 L97.03,5.06 L95.43,5.05 L93.83,5.04 L92.23,5.02 L90.63,4.99 L89.03,4.96 L87.43,4.93 L85.83,4.90 L84.23,4.87 L82.63,4.83 L81.03,4.80 L79.43,4.78 L77.83,4.75 L76.23,4.74 L74.63,4.73 L73.03,4.73 L71.43,4.74 L69.83,4.76 L68.23,4.80 L66.63,4.84 L65.03,4.90 L63.43,4.97 L61.83,5.05 L60.24,5.15 L58.64,5.26 L57.04,5.38 L55.44,5.51 L53.84,5.65 L52.24,5.81 L50.64,5.97 L49.04,6.14 L47.44,6.32 L45.84,6.50 L44.24,6.69 L42.64,6.88 L41.04,7.06 L39.44,7.25 L37.84,7.43 L36.24,7.61 L34.64,7.78 L33.04,7.94 L31.44,8.09 L29.84,8.23 L28.24,8.36 L26.64,8.47 L25.04,8.57 L23.44,8.65 L22.74,11.10 L21.99,11.19 L21.24,11.32 L20.50,11.49 L18.47,12.00 L16.45,12.52 L14.43,13.03 L12.41,13.55 L10.38,14.06 L8.36,14.57 L7.51,14.66 L6.69,14.51 L5.94,14.14 L5.30,13.57 L4.86,12.84 L4.65,12.03 L4.66,11.19 L4.92,10.37 L5.92,8.27 L6.92,6.16 L6.98,6.07 L7.06,5.99 L7.16,5.93 L7.26,5.89 L7.55,5.77 L7.79,5.58 L7.95,5.32 L8.03,5.01 L8.01,4.70 L7.90,4.42 L7.71,4.18 L7.45,4.00 L7.15,3.92 L6.84,3.94 L6.55,4.04 L6.31,4.24 L6.22,4.31 L6.12,4.36 L6.01,4.39 L5.90,4.39 L2.95,4.17 L0.00,3.94 L0.20,1.32 L0.40,-1.30 L0.48,-1.63 L0.66,-1.90 L0.91,-2.10 L1.22,-2.21 L2.16,-2.55 L2.92,-3.15 L3.45,-3.97 L3.69,-4.94 Z"/><circle cx="15.21" cy="5.11" r="1.48"/><circle cx="123.86" cy="0.07" r="3.50"/><circle cx="9.57" cy="9.94" r="1.48"/><circle cx="8.32" cy="0.07" r="2.00"/><circle cx="131.86" cy="-9.43" r="1.60"/><circle cx="115.86" cy="-9.43" r="1.60"/><circle cx="131.86" cy="9.57" r="1.60"/><circle cx="115.86" cy="9.57" r="1.60"/></g></svg>