<svg xmlns="http://www.w3.org/2000/svg" width="146.9mm" height="33.4mm" viewBox="-2.0 -16.7 146.9 33.4"><g fill="none" stroke="#111" stroke-width="0.35" stroke-linejoin="round"><path d="M3.96,-8.47 L6.08,-8.41 L8.20,-8.35 L10.32,-8.29 L12.44,-8.23 L12.54,-8.22 L12.64,-8.18 L12.72,-8.13 L12.80,-8.07 L12.86,-7.99 L12.90,-7.90 L12.92,-7.80 L12.93,-7.70 L12.95,-7.18 L13.07,-6.68 L13.57,-5.82 L14.35,-5.22 L14.83,-5.03 L15.34,-4.95 L15.87,-4.96 L16.36,-5.08 L17.22,-5.57 L17.84,-6.35 L18.02,-6.83 L18.11,-7.34 L18.13,-7.59 L18.18,-7.78 L18.30,-7.93 L18.46,-8.02 L18.65,-8.06 L20.65,-8.00 L22.65,-7.94 L24.41,-6.39 L26.08,-6.33 L27.75,-6.26 L29.42,-6.18 L31.09,-6.09 L32.76,-5.99 L34.43,-5.89 L36.10,-5.78 L37.77,-5.66 L39.43,-5.54 L41.10,-5.42 L42.77,-5.29 L44.44,-5.17 L46.11,-5.04 L47.78,-4.91 L49.45,-4.79 L51.12,-4.67 L52.79,-4.56 L54.46,-4.45 L56.13,-4.35 L57.80,-4.26 L59.47,-4.17 L61.14,-4.09 L62.81,-4.02 L64.48,-3.96 L66.15,-3.91 L67.82,-3.87 L69.49,-3.83 L71.16,-3.81 L72.83,-3.79 L74.49,-3.78 L76.16,-3.78 L77.83,-3.79 L79.50,-3.80 L81.17,-3.82 L82.84,-3.84 L84.51,-3.86 L86.18,-3.89 L87.85,-3.92 L89.52,-3.95 L91.19,-3.98 L92.86,-4.01 L94.53,-4.03 L96.20,-4.05 L97.87,-4.07 L99.54,-4.09 L101.21,-4.09 L102.88,-4.10 L104.67,-4.17 L106.45,-4.38 L108.20,-4.72 L109.91,-5.21 L111.57,-5.83 L113.18,-6.57 L114.87,-9.19 L116.63,-10.43 L119.70,-12.79 L120.18,-13.07 L120.70,-13.23 L121.25,-13.26 L121.79,-13.15 L122.29,-12.91 L122.72,-12.57 L123.05,-12.13 L123.26,-11.62 L123.76,-10.47 L124.53,-9.50 L125.52,-8.77 L126.68,-8.30 L127.92,-8.15 L129.14,-8.33 L130.28,-8.81 L131.27,-9.58 L132.77,-11.09 L134.26,-12.61 L135.76,-14.13 L136.23,-14.49 L136.78,-14.68 L137.36,-14.72 L137.93,-14.58 L139.42,-13.80 L140.72,-12.75 L141.79,-11.47 L142.59,-9.99 L142.73,-9.42 L142.71,-8.84 L142.52,-8.29 L142.17,-7.81 L140.41,-6.03 L138.66,-4.25 L137.90,-3.30 L137.35,-2.26 L137.03,-1.14 L136.93,0.00 L137.05,1.15 L137.39,2.26 L137.94,3.30 L138.72,4.23 L140.50,5.99 L142.28,7.74 L142.63,8.22 L142.83,8.76 L142.86,9.34 L142.73,9.92 L141.95,11.41 L140.90,12.70 L139.62,13.77 L138.14,14.57 L137.56,14.72 L136.98,14.69 L136.44,14.50 L135.96,14.15 L134.44,12.66 L132.92,11.16 L131.40,9.66 L130.40,8.91 L129.26,8.44 L128.04,8.28 L126.80,8.45 L125.64,8.93 L124.66,9.68 L123.91,10.66 L123.42,11.82 L123.21,12.33 L122.89,12.77 L122.47,13.12 L121.98,13.36 L121.43,13.48 L120.89,13.46 L120.36,13.31 L119.88,13.04 L117.98,11.61 L116.19,10.40 L114.32,9.34 L112.63,6.84 L110.95,6.25 L109.22,5.79 L107.46,5.47 L105.67,5.28 L103.87,5.23 L102.19,5.25 L100.52,5.26 L98.84,5.26 L97.17,5.25 L95.49,5.24 L93.82,5.22 L92.14,5.20 L90.47,5.17 L88.79,5.15 L87.11,5.12 L85.44,5.09 L83.76,5.07 L82.09,5.05 L80.41,5.04 L78.74,5.03 L77.06,5.03 L75.39,5.03 L73.71,5.05 L72.04,5.07 L70.36,5.11 L68.69,5.16 L67.01,5.22 L65.34,5.29 L63.66,5.38 L61.99,5.47 L60.31,5.58 L58.64,5.71 L56.96,5.84 L55.28,5.98 L53.61,6.13 L51.93,6.30 L50.26,6.47 L48.58,6.64 L46.91,6.82 L45.23,7.00 L43.56,7.19 L41.88,7.37 L40.21,7.56 L38.53,7.74 L36.86,7.91 L35.18,8.08 L33.51,8.24 L31.83,8.39 L30.16,8.53 L28.48,8.65 L26.81,8.76 L25.13,8.86 L23.45,8.95 L22.74,11.10 L21.99,11.19 L21.24,11.32 L20.50,11.49 L18.47,12.00 L16.45,12.52 L14.43,13.03 L12.41,13.55 L10.38,14.06 L8.36,14.57 L7.51,14.66 L6.69,14.51 L5.94,14.14 L5.30,13.57 L4.86,12.84 L4.65,12.03 L4.66,11.19 L4.92,10.37 L5.92,8.27 L6.92,6.16 L6.98,6.07 L7.06,5.99 L7.16,5.93 L7.26,5.89 L7.55,5.77 L7.79,5.58 L7.95,5.32 L8.03,5.01 L8.01,4.70 L7.90,4.42 L7.71,4.18 L7.45,4.00 L7.15,3.92 L6.84,3.94 L6.55,4.04 L6.31,4.24 L6.22,4.31 L6.12,4.36 L6.01,4.39 L5.90,4.39 L2.95,4.17 L0.00,3.94 L0.20,1.32 L0.40,-1.30 L0.48,-1.63 L0.66,-1.90 L0.91,-2.10 L1.22,-2.21 L2.16,-2.55 L2.92,-3.15 L3.45,-3.97 L3.69,-4.94 Z"/><circle cx="15.21" cy="5.11" r="1.48"/><circle cx="127.95" cy="0.07" r="3.50"/><circle cx="9.57" cy="9.94" r="1.48"/><circle cx="8.32" cy="0.07" r="2.00"/><circle cx="135.95" cy="-9.43" r="1.60"/><circle cx="119.95" cy="-9.43" r="1.60"/><circle cx="135.95" cy="9.57" r="1.60"/><circle cx="119.95" cy="9.57" r="1.60"/></g></svg>