<svg xmlns="http://www.w3.org/2000/svg" width="169.6mm" height="35.3mm" viewBox="-2.0 -17.6 169.6 35.3"><g fill="none" stroke="#111" stroke-width="0.35" stroke-linejoin="round"><path d="M142.85,13.09 L143.35,13.34 L143.88,13.46 L144.43,13.44 L144.96,13.30 L145.45,13.02 L145.84,12.65 L146.14,12.19 L146.32,11.67 L146.73,10.48 L147.43,9.46 L148.36,8.65 L149.49,8.11 L150.72,7.87 L151.95,7.95 L153.11,8.35 L154.16,9.04 L155.76,10.45 L157.36,11.85 L158.97,13.26 L159.47,13.58 L160.02,13.74 L160.60,13.73 L161.17,13.55 L162.60,12.66 L163.81,11.52 L164.78,10.17 L165.48,8.63 L165.58,8.05 L165.51,7.47 L165.28,6.94 L164.90,6.49 L163.02,4.84 L161.14,3.19 L160.31,2.31 L159.69,1.30 L159.29,0.21 L159.10,-0.92 L159.14,-2.07 L159.39,-3.20 L159.87,-4.28 L160.58,-5.27 L162.23,-7.15 L163.87,-9.03 L164.19,-9.53 L164.35,-10.09 L164.34,-10.67 L164.16,-11.23 L163.28,-12.66 L162.14,-13.88 L160.78,-14.85 L159.25,-15.54 L158.66,-15.64 L158.09,-15.58 L157.56,-15.35 L157.10,-14.96 L155.70,-13.36 L154.29,-11.76 L152.89,-10.15 L151.95,-9.33 L150.84,-8.78 L149.63,-8.53 L148.38,-8.61 L147.19,-9.00 L146.16,-9.68 L145.34,-10.60 L144.77,-11.72 L144.53,-12.22 L144.17,-12.63 L143.73,-12.95 L143.22,-13.16 L142.67,-13.24 L142.13,-13.18 L141.61,-12.99 L141.15,-12.68 L138.23,-10.14 L136.31,-8.63 L134.57,-5.93 L132.78,-5.03 L130.91,-4.30 L128.97,-3.74 L126.99,-3.37 L124.97,-3.18 L122.94,-3.16 L121.26,-3.23 L119.59,-3.28 L117.91,-3.34 L116.24,-3.39 L114.57,-3.43 L112.89,-3.47 L111.22,-3.51 L109.55,-3.54 L107.87,-3.57 L106.20,-3.60 L104.52,-3.63 L102.85,-3.66 L101.18,-3.69 L99.50,-3.72 L97.83,-3.75 L96.16,-3.78 L94.48,-3.82 L92.81,-3.86 L91.13,-3.90 L89.46,-3.95 L87.79,-4.00 L86.11,-4.06 L84.44,-4.13 L82.76,-4.20 L81.09,-4.28 L79.42,-4.37 L77.74,-4.47 L76.07,-4.57 L74.40,-4.69 L72.72,-4.81 L71.05,-4.94 L69.37,-5.07 L67.70,-5.22 L66.03,-5.37 L64.35,-5.53 L62.68,-5.69 L61.01,-5.86 L59.33,-6.03 L57.66,-6.21 L55.98,-6.39 L54.31,-6.57 L52.64,-6.75 L50.96,-6.93 L49.29,-7.11 L47.61,-7.29 L45.94,-7.46 L44.27,-7.63 L42.59,-7.80 L40.92,-7.96 L39.25,-8.11 L37.57,-8.25 L35.90,-8.38 L34.22,-8.51 L32.55,-8.62 L30.81,-10.77 L28.81,-10.89 L26.80,-11.01 L24.80,-11.13 L22.79,-11.25 L20.79,-11.38 L18.78,-11.50 L16.77,-11.62 L14.77,-11.74 L12.76,-11.86 L11.09,-10.46 L9.42,-9.06 L7.75,-7.66 L6.08,-6.26 L4.41,-4.86 L2.74,-3.46 L1.07,-2.06 L0.50,-1.42 L0.14,-0.67 L0.00,0.16 L0.10,1.01 L0.43,1.80 L0.96,2.44 L1.65,2.92 L2.46,3.19 L4.80,3.62 L7.14,4.04 L7.25,4.05 L7.35,4.03 L7.45,3.99 L7.54,3.94 L7.79,3.79 L8.06,3.73 L8.34,3.75 L8.61,3.86 L8.83,4.04 L8.98,4.28 L9.06,4.55 L9.05,4.83 L8.95,5.10 L8.78,5.33 L8.55,5.49 L8.28,5.58 L8.18,5.61 L8.08,5.66 L8.00,5.73 L7.94,5.81 L6.89,7.52 L5.85,9.23 L4.81,10.94 L6.94,12.24 L9.08,13.54 L11.21,14.85 L11.39,14.93 L11.58,14.98 L11.77,14.99 L11.97,14.96 L12.15,14.90 L12.32,14.80 L12.47,14.67 L12.58,14.51 L13.89,12.38 L14.14,12.10 L14.47,11.94 L14.83,11.90 L15.19,12.00 L17.53,13.18 L19.86,14.36 L22.19,15.54 L22.56,15.64 L22.92,15.61 L23.25,15.45 L23.50,15.17 L25.26,12.29 L25.81,11.50 L26.44,10.81 L27.15,10.20 L27.94,9.68 L28.77,9.27 L29.66,8.97 L30.58,8.77 L31.48,7.04 L33.16,7.01 L34.84,6.97 L36.52,6.92 L38.20,6.86 L39.88,6.79 L41.56,6.72 L43.24,6.64 L44.92,6.55 L46.60,6.46 L48.28,6.36 L49.96,6.26 L51.64,6.15 L53.32,6.05 L55.00,5.94 L56.68,5.83 L58.36,5.72 L60.04,5.61 L61.72,5.51 L63.40,5.40 L65.08,5.31 L66.76,5.21 L68.44,5.12 L70.12,5.04 L71.79,4.96 L73.47,4.89 L75.15,4.82 L76.83,4.77 L78.51,4.72 L80.19,4.68 L81.87,4.65 L83.55,4.62 L85.23,4.61 L86.91,4.60 L88.59,4.60 L90.27,4.60 L91.95,4.62 L93.63,4.64 L95.31,4.67 L96.99,4.70 L98.67,4.74 L100.35,4.78 L102.03,4.82 L103.71,4.87 L105.39,4.92 L107.07,4.97 L108.75,5.03 L110.43,5.08 L112.11,5.13 L113.79,5.18 L115.47,5.23 L117.15,5.27 L118.83,5.31 L120.51,5.35 L122.19,5.38 L123.87,5.40 L125.55,5.42 L127.23,5.44 L128.80,5.50 L130.35,5.67 L131.89,5.95 L133.40,6.33 L134.88,6.82 L136.35,9.14 L138.02,9.99 L139.63,10.97 Z"/><circle cx="12.75" cy="-2.08" r="1.48"/><circle cx="150.15" cy="-0.33" r="3.50"/><circle cx="5.54" cy="-0.33" r="1.48"/><circle cx="23.20" cy="5.06" r="3.00"/><circle cx="12.82" cy="6.45" r="2.00"/><circle cx="158.15" cy="-9.83" r="1.60"/><circle cx="142.15" cy="-9.83" r="1.60"/><circle cx="158.15" cy="9.17" r="1.60"/><circle cx="142.15" cy="9.17" r="1.60"/></g></svg>