<svg xmlns="http://www.w3.org/2000/svg" width="114.8mm" height="53.9mm" viewBox="-57.4 -27.0 114.8 53.9"><g fill="none" stroke="#111" stroke-width="0.35" stroke-linejoin="round"><path d="M-44.18,-24.95 L-43.54,-24.85 L-42.97,-24.56 L-42.52,-24.12 L-42.22,-23.55 L-40.05,-17.09 L-39.75,-16.52 L-39.30,-16.08 L-38.73,-15.79 L-38.09,-15.69 L-25.93,-15.69 L-25.29,-15.79 L-24.73,-16.08 L-24.28,-16.52 L-23.98,-17.09 L-21.80,-23.55 L-21.50,-24.12 L-21.05,-24.56 L-20.49,-24.85 L-19.85,-24.95 L-18.18,-24.95 L-17.73,-24.90 L-17.31,-24.76 L-16.93,-24.52 L-16.60,-24.21 L-14.71,-22.17 L-12.62,-20.35 L-10.35,-18.77 L-7.91,-17.44 L-7.33,-17.26 L-6.74,-17.26 L-6.18,-17.42 L-5.67,-17.74 L-4.94,-18.23 L-4.13,-18.53 L-3.28,-18.62 L-2.41,-18.51 L-1.59,-18.19 L-0.89,-17.69 L-0.32,-17.04 L0.08,-16.27 L0.38,-15.71 L0.83,-15.29 L1.38,-15.02 L2.01,-14.92 L51.12,-14.92 L51.79,-14.86 L52.41,-14.68 L52.98,-14.40 L53.49,-14.03 L53.93,-13.57 L54.29,-13.04 L54.55,-12.45 L54.70,-11.80 L54.93,-9.90 L55.13,-7.99 L55.28,-6.08 L55.40,-4.16 L55.39,-3.96 L55.33,-3.76 L55.24,-3.57 L55.11,-3.41 L54.95,-3.27 L54.77,-3.17 L54.58,-3.11 L54.37,-3.09 L43.66,-3.09 L43.03,-3.02 L42.45,-2.84 L41.93,-2.56 L41.47,-2.18 L41.10,-1.73 L40.81,-1.20 L40.63,-0.62 L40.57,0.00 L40.63,0.62 L40.81,1.20 L41.10,1.73 L41.47,2.18 L41.93,2.56 L42.45,2.84 L43.03,3.02 L43.66,3.09 L54.37,3.09 L54.58,3.11 L54.77,3.17 L54.95,3.27 L55.11,3.41 L55.24,3.57 L55.33,3.76 L55.39,3.96 L55.40,4.16 L55.28,6.08 L55.13,7.99 L54.93,9.90 L54.70,11.80 L54.55,12.45 L54.29,13.04 L53.93,13.57 L53.49,14.03 L52.98,14.40 L52.41,14.68 L51.79,14.86 L51.12,14.92 L2.01,14.92 L1.38,15.02 L0.83,15.29 L0.38,15.71 L0.08,16.27 L-0.32,17.04 L-0.89,17.69 L-1.59,18.19 L-2.41,18.51 L-3.28,18.62 L-4.13,18.53 L-4.94,18.23 L-5.67,17.74 L-6.18,17.42 L-6.74,17.26 L-7.33,17.26 L-7.91,17.44 L-10.35,18.77 L-12.62,20.35 L-14.71,22.17 L-16.60,24.21 L-16.93,24.52 L-17.31,24.76 L-17.73,24.90 L-18.18,24.95 L-19.85,24.95 L-20.49,24.85 L-21.05,24.56 L-21.50,24.12 L-21.80,23.55 L-23.98,17.09 L-24.28,16.52 L-24.73,16.08 L-25.29,15.79 L-25.93,15.69 L-38.09,15.69 L-38.73,15.79 L-39.30,16.08 L-39.75,16.52 L-40.05,17.09 L-42.22,23.55 L-42.52,24.12 L-42.97,24.56 L-43.54,24.85 L-44.18,24.95 L-45.84,24.95 L-46.29,24.90 L-46.72,24.76 L-47.10,24.52 L-47.42,24.21 L-48.78,22.70 L-50.25,21.31 L-51.82,20.04 L-53.49,18.89 L-54.34,18.17 L-54.96,17.27 L-55.32,16.24 L-55.40,15.13 L-54.91,8.06 L-54.72,7.25 L-54.30,6.56 L-53.69,6.04 L-52.92,5.73 L-52.10,5.67 L-51.32,5.87 L-50.64,6.31 L-50.11,6.95 L-49.84,7.28 L-49.49,7.49 L-49.09,7.59 L-48.67,7.55 L-48.28,7.37 L-47.98,7.09 L-47.78,6.73 L-47.71,6.31 L-47.71,-6.31 L-47.78,-6.73 L-47.98,-7.09 L-48.28,-7.37 L-48.67,-7.55 L-49.09,-7.59 L-49.49,-7.49 L-49.84,-7.28 L-50.11,-6.95 L-50.64,-6.31 L-51.32,-5.87 L-52.10,-5.67 L-52.92,-5.73 L-53.69,-6.04 L-54.30,-6.56 L-54.72,-7.25 L-54.91,-8.06 L-55.40,-15.13 L-55.32,-16.24 L-54.96,-17.27 L-54.34,-18.17 L-53.49,-18.89 L-51.82,-20.04 L-50.25,-21.31 L-48.78,-22.70 L-47.42,-24.21 L-47.10,-24.52 L-46.72,-24.76 L-46.29,-24.90 L-45.84,-24.95 Z"/><path d="M29.12,-7.50 L29.30,-7.75 L29.40,-8.03 L29.42,-8.33 L29.34,-8.62 L29.18,-8.89 L28.96,-9.09 L28.69,-9.21 L28.39,-9.26 L17.74,-9.26 L17.44,-9.21 L17.17,-9.09 L16.95,-8.89 L16.79,-8.62 L16.72,-8.33 L16.73,-8.03 L16.83,-7.75 L17.01,-7.50 L22.34,-2.18 L22.68,-1.96 L23.07,-1.88 L23.45,-1.96 L23.79,-2.18 Z"/><path d="M15.56,-6.05 L15.31,-6.23 L15.03,-6.33 L14.73,-6.35 L14.44,-6.27 L14.18,-6.11 L13.97,-5.89 L13.85,-5.62 L13.80,-5.32 L13.80,5.32 L13.85,5.62 L13.97,5.89 L14.18,6.11 L14.44,6.27 L14.73,6.35 L15.03,6.33 L15.31,6.23 L15.56,6.05 L20.88,0.73 L21.01,0.57 L21.11,0.39 L21.16,0.20 L21.18,-0.00 L21.16,-0.20 L21.11,-0.39 L21.01,-0.57 L20.88,-0.73 Z"/><path d="M30.57,-6.05 L30.82,-6.23 L31.10,-6.33 L31.40,-6.35 L31.70,-6.27 L31.96,-6.11 L32.16,-5.89 L32.29,-5.62 L32.33,-5.32 L32.33,5.32 L32.29,5.62 L32.16,5.89 L31.96,6.11 L31.70,6.27 L31.40,6.35 L31.10,6.33 L30.82,6.23 L30.57,6.05 L25.25,0.73 L25.12,0.57 L25.03,0.39 L24.97,0.20 L24.95,-0.00 L24.97,-0.20 L25.03,-0.39 L25.12,-0.57 L25.25,-0.73 Z"/><path d="M-6.61,4.63 L-6.99,4.53 L-7.29,4.30 L-7.49,3.99 L-7.56,3.61 L-7.56,-3.61 L-7.49,-3.99 L-7.29,-4.30 L-6.99,-4.53 L-6.61,-4.63 L7.54,-5.77 L7.75,-5.76 L7.96,-5.71 L8.15,-5.63 L8.32,-5.50 L8.46,-5.34 L8.57,-5.16 L8.63,-4.95 L8.65,-4.74 L8.65,4.74 L8.63,4.95 L8.57,5.16 L8.46,5.34 L8.32,5.50 L8.15,5.63 L7.96,5.71 L7.75,5.76 L7.54,5.77 Z"/><path d="M29.12,7.50 L29.30,7.75 L29.40,8.03 L29.42,8.33 L29.34,8.62 L29.18,8.89 L28.96,9.09 L28.69,9.21 L28.39,9.26 L17.74,9.26 L17.44,9.21 L17.17,9.09 L16.95,8.89 L16.79,8.62 L16.72,8.33 L16.73,8.03 L16.83,7.75 L17.01,7.50 L22.34,2.18 L22.68,1.96 L23.07,1.88 L23.45,1.96 L23.79,2.18 Z"/><path d="M49.10,-6.43 L48.80,-6.37 L48.55,-6.20 L48.39,-5.96 L48.33,-5.66 L48.39,-5.36 L48.55,-5.11 L48.80,-4.95 L49.10,-4.89 L52.19,-4.89 L52.49,-4.95 L52.74,-5.11 L52.90,-5.36 L52.96,-5.66 L52.90,-5.96 L52.74,-6.20 L52.49,-6.37 L52.19,-6.43 Z"/><path d="M49.10,6.43 L48.80,6.37 L48.55,6.20 L48.39,5.96 L48.33,5.66 L48.39,5.36 L48.55,5.11 L48.80,4.95 L49.10,4.89 L52.19,4.89 L52.49,4.95 L52.74,5.11 L52.90,5.36 L52.96,5.66 L52.90,5.96 L52.74,6.20 L52.49,6.37 L52.19,6.43 Z"/><circle cx="-32.01" cy="0.00" r="5.00"/><circle cx="-52.34" cy="-8.23" r="1.00"/><circle cx="-11.34" cy="-8.00" r="1.00"/><circle cx="-3.21" cy="-14.60" r="1.50"/><circle cx="12.77" cy="-10.29" r="1.10"/><circle cx="33.36" cy="-10.29" r="1.10"/><circle cx="51.12" cy="-11.32" r="1.50"/><circle cx="-52.34" cy="8.23" r="1.00"/><circle cx="-11.34" cy="8.00" r="1.00"/><circle cx="-3.21" cy="14.60" r="1.50"/><circle cx="12.77" cy="10.29" r="1.10"/><circle cx="33.36" cy="10.29" r="1.10"/><circle cx="51.12" cy="11.32" r="1.50"/><circle cx="39.59" cy="-10.52" r="1.48"/><circle cx="39.59" cy="10.52" r="1.48"/><circle cx="4.25" cy="-7.28" r="1.48"/><circle cx="4.25" cy="7.28" r="1.48"/></g></svg>