<svg xmlns="http://www.w3.org/2000/svg" width="169.0mm" height="47.7mm" viewBox="-84.5 -23.9 169.0 47.7"><g fill="none" stroke="#111" stroke-width="0.35" stroke-linejoin="round"><path d="M12.45,21.79 L12.32,21.82 L12.18,21.85 L12.05,21.86 L11.91,21.86 L-21.74,21.86 L-21.87,21.86 L-22.01,21.85 L-22.14,21.82 L-22.27,21.79 L-46.59,15.27 L-47.25,15.12 L-47.91,15.01 L-48.59,14.94 L-49.26,14.92 L-54.04,14.92 L-54.67,15.02 L-55.22,15.29 L-55.67,15.71 L-55.97,16.27 L-56.51,17.23 L-57.29,17.98 L-58.26,18.45 L-59.36,18.62 L-60.45,18.45 L-61.42,17.98 L-62.20,17.23 L-62.74,16.27 L-63.04,15.71 L-63.49,15.29 L-64.05,15.02 L-64.67,14.92 L-77.52,14.92 L-77.94,14.89 L-78.35,14.81 L-78.74,14.67 L-79.11,14.48 L-82.50,12.45 L-82.50,10.39 L-81.21,10.39 L-80.84,10.36 L-80.49,10.26 L-80.15,10.10 L-79.85,9.88 L-76.35,6.80 L-75.91,6.32 L-75.58,5.76 L-75.37,5.14 L-75.30,4.49 L-75.30,-4.49 L-75.37,-5.14 L-75.58,-5.76 L-75.91,-6.32 L-76.35,-6.80 L-79.85,-9.88 L-80.15,-10.10 L-80.49,-10.26 L-80.84,-10.36 L-81.21,-10.39 L-82.50,-10.39 L-82.50,-12.45 L-79.11,-14.48 L-78.74,-14.67 L-78.35,-14.81 L-77.94,-14.89 L-77.52,-14.92 L-64.67,-14.92 L-64.05,-15.02 L-63.49,-15.29 L-63.04,-15.71 L-62.74,-16.27 L-62.20,-17.23 L-61.42,-17.98 L-60.45,-18.45 L-59.36,-18.62 L-58.26,-18.45 L-57.29,-17.98 L-56.51,-17.23 L-55.97,-16.27 L-55.67,-15.71 L-55.22,-15.29 L-54.67,-15.02 L-54.04,-14.92 L-49.26,-14.92 L-48.59,-14.94 L-47.91,-15.01 L-47.25,-15.12 L-46.59,-15.27 L-22.27,-21.79 L-22.14,-21.82 L-22.01,-21.85 L-21.87,-21.86 L-21.74,-21.86 L11.91,-21.86 L12.05,-21.86 L12.18,-21.85 L12.32,-21.82 L12.45,-21.79 L36.11,-15.45 L37.10,-15.22 L38.09,-15.05 L39.10,-14.95 L40.11,-14.92 L78.22,-14.92 L78.88,-14.86 L79.51,-14.68 L80.08,-14.40 L80.59,-14.03 L81.03,-13.57 L81.39,-13.04 L81.64,-12.45 L81.79,-11.80 L82.03,-9.90 L82.23,-7.99 L82.38,-6.08 L82.50,-4.16 L82.48,-3.96 L82.43,-3.76 L82.34,-3.57 L82.21,-3.41 L82.05,-3.27 L81.87,-3.17 L81.68,-3.11 L81.47,-3.09 L70.76,-3.09 L70.13,-3.02 L69.55,-2.84 L69.03,-2.56 L68.57,-2.18 L68.19,-1.73 L67.91,-1.20 L67.73,-0.62 L67.67,0.00 L67.73,0.62 L67.91,1.20 L68.19,1.73 L68.57,2.18 L69.03,2.56 L69.55,2.84 L70.13,3.02 L70.76,3.09 L81.47,3.09 L81.68,3.11 L81.87,3.17 L82.05,3.27 L82.21,3.41 L82.34,3.57 L82.43,3.76 L82.48,3.96 L82.50,4.16 L82.38,6.08 L82.23,7.99 L82.03,9.90 L81.79,11.80 L81.64,12.45 L81.39,13.04 L81.03,13.57 L80.59,14.03 L80.08,14.40 L79.51,14.68 L78.88,14.86 L78.22,14.92 L40.11,14.92 L39.10,14.95 L38.09,15.05 L37.10,15.22 L36.11,15.45 Z"/><path d="M-52.65,12.45 L-52.61,12.65 L-52.50,12.81 L-52.34,12.92 L-52.14,12.96 L-51.94,12.92 L-51.77,12.81 L-51.66,12.65 L-51.62,12.45 L-46.48,12.45 L-46.43,12.65 L-46.32,12.81 L-46.16,12.92 L-45.96,12.96 L-45.76,12.92 L-45.60,12.81 L-45.49,12.65 L-45.45,12.45 L-45.45,10.39 L-45.49,10.19 L-45.60,10.03 L-45.76,9.92 L-45.96,9.88 L-46.16,9.92 L-46.32,10.03 L-46.43,10.19 L-46.48,10.39 L-51.62,10.39 L-51.66,10.19 L-51.77,10.03 L-51.94,9.92 L-52.14,9.88 L-52.34,9.92 L-52.50,10.03 L-52.61,10.19 L-52.65,10.39 Z"/><path d="M-52.65,-12.45 L-52.61,-12.65 L-52.50,-12.81 L-52.34,-12.92 L-52.14,-12.96 L-51.94,-12.92 L-51.77,-12.81 L-51.66,-12.65 L-51.62,-12.45 L-46.48,-12.45 L-46.43,-12.65 L-46.32,-12.81 L-46.16,-12.92 L-45.96,-12.96 L-45.76,-12.92 L-45.60,-12.81 L-45.49,-12.65 L-45.45,-12.45 L-45.45,-10.39 L-45.49,-10.19 L-45.60,-10.03 L-45.76,-9.92 L-45.96,-9.88 L-46.16,-9.92 L-46.32,-10.03 L-46.43,-10.19 L-46.48,-10.39 L-51.62,-10.39 L-51.66,-10.19 L-51.77,-10.03 L-51.94,-9.92 L-52.14,-9.88 L-52.34,-9.92 L-52.50,-10.03 L-52.61,-10.19 L-52.65,-10.39 Z"/><path d="M12.59,-18.78 L12.99,-18.70 L13.32,-18.48 L13.54,-18.15 L13.62,-17.75 L13.54,-17.35 L13.32,-17.02 L12.99,-16.80 L12.59,-16.72 L-22.41,-16.72 L-22.81,-16.80 L-23.14,-17.02 L-23.36,-17.35 L-23.44,-17.75 L-23.36,-18.15 L-23.14,-18.48 L-22.81,-18.70 L-22.41,-18.78 Z"/><path d="M12.59,18.78 L12.99,18.70 L13.32,18.48 L13.54,18.15 L13.62,17.75 L13.54,17.35 L13.32,17.02 L12.99,16.80 L12.59,16.72 L-22.41,16.72 L-22.81,16.80 L-23.14,17.02 L-23.36,17.35 L-23.44,17.75 L-23.36,18.15 L-23.14,18.48 L-22.81,18.70 L-22.41,18.78 Z"/><path d="M-4.45,-1.38 L7.42,-7.31 L7.70,-7.52 L7.89,-7.80 L7.98,-8.12 L7.96,-8.47 L7.82,-8.79 L7.59,-9.04 L7.30,-9.20 L6.96,-9.26 L-16.78,-9.26 L-17.12,-9.20 L-17.42,-9.04 L-17.65,-8.79 L-17.78,-8.47 L-17.80,-8.12 L-17.71,-7.80 L-17.52,-7.52 L-17.24,-7.31 L-5.37,-1.38 L-5.15,-1.30 L-4.91,-1.27 L-4.68,-1.30 Z"/><path d="M13.62,6.44 L13.62,-6.44 L13.58,-6.71 L13.49,-6.95 L13.33,-7.15 L13.13,-7.32 L12.89,-7.43 L12.64,-7.47 L12.38,-7.45 L12.13,-7.37 L-0.77,-0.92 L-1.00,-0.76 L-1.18,-0.54 L-1.30,-0.28 L-1.34,0.00 L-1.30,0.28 L-1.18,0.54 L-1.00,0.76 L-0.77,0.92 L12.13,7.37 L12.38,7.45 L12.64,7.47 L12.89,7.43 L13.13,7.32 L13.33,7.15 L13.49,6.95 L13.58,6.71 Z"/><path d="M-4.45,1.38 L7.42,7.31 L7.70,7.52 L7.89,7.80 L7.98,8.12 L7.96,8.47 L7.82,8.79 L7.59,9.04 L7.30,9.20 L6.96,9.26 L-16.78,9.26 L-17.12,9.20 L-17.42,9.04 L-17.65,8.79 L-17.78,8.47 L-17.80,8.12 L-17.71,7.80 L-17.52,7.52 L-17.24,7.31 L-5.37,1.38 L-5.15,1.30 L-4.91,1.27 L-4.68,1.30 Z"/><path d="M-30.65,5.42 L-30.65,-5.42 L-30.49,-6.22 L-30.05,-6.87 L-29.39,-7.31 L-28.59,-7.47 L-22.66,-7.47 L-22.42,-7.46 L-22.18,-7.42 L-21.96,-7.35 L-21.74,-7.26 L-9.06,-0.92 L-8.82,-0.76 L-8.64,-0.54 L-8.53,-0.28 L-8.49,0.00 L-8.53,0.28 L-8.64,0.54 L-8.82,0.76 L-9.06,0.92 L-21.74,7.26 L-21.96,7.35 L-22.18,7.42 L-22.42,7.46 L-22.66,7.47 L-28.59,7.47 L-29.39,7.31 L-30.05,6.87 L-30.49,6.22 Z"/><path d="M69.47,-11.32 L69.87,-11.24 L70.20,-11.02 L70.42,-10.69 L70.50,-10.29 L70.42,-9.89 L70.20,-9.56 L69.87,-9.34 L69.47,-9.26 L46.31,-9.26 L45.91,-9.34 L45.58,-9.56 L45.36,-9.89 L45.28,-10.29 L45.36,-10.69 L45.58,-11.02 L45.91,-11.24 L46.31,-11.32 Z"/><path d="M41.39,6.11 L34.67,0.81 L34.51,0.64 L34.38,0.45 L34.31,0.23 L34.28,0.00 L34.31,-0.23 L34.38,-0.45 L34.51,-0.64 L34.67,-0.81 L41.39,-6.11 L41.60,-6.24 L41.82,-6.31 L42.06,-6.34 L42.30,-6.30 L58.67,-1.91 L58.98,-1.77 L59.22,-1.54 L59.38,-1.25 L59.43,-0.92 L59.43,0.92 L59.38,1.25 L59.22,1.54 L58.98,1.77 L58.67,1.91 L42.30,6.30 L42.06,6.34 L41.82,6.31 L41.60,6.24 Z"/><path d="M31.39,9.22 L31.33,9.24 L31.26,9.25 L31.19,9.26 L31.13,9.26 L24.89,9.26 L24.57,9.21 L24.29,9.07 L24.07,8.85 L23.91,8.57 L23.86,8.25 L23.90,7.94 L24.03,7.66 L24.25,7.42 L31.35,1.82 L31.66,1.65 L31.99,1.59 L32.32,1.65 L32.63,1.82 L37.71,5.83 L37.91,6.04 L38.04,6.28 L38.10,6.56 L38.08,6.84 L37.98,7.11 L37.82,7.34 L37.60,7.52 L37.34,7.63 Z"/><path d="M31.39,-9.22 L37.34,-7.63 L37.60,-7.52 L37.82,-7.34 L37.98,-7.11 L38.08,-6.84 L38.10,-6.56 L38.04,-6.28 L37.91,-6.04 L37.71,-5.83 L32.63,-1.82 L32.32,-1.65 L31.99,-1.59 L31.66,-1.65 L31.35,-1.82 L24.25,-7.42 L24.03,-7.66 L23.90,-7.94 L23.86,-8.25 L23.91,-8.57 L24.07,-8.85 L24.29,-9.07 L24.57,-9.21 L24.89,-9.26 L31.13,-9.26 L31.19,-9.26 L31.26,-9.25 L31.33,-9.24 Z"/><path d="M19.54,-6.40 L19.58,-6.68 L19.70,-6.94 L19.88,-7.16 L20.12,-7.32 L20.39,-7.41 L20.68,-7.42 L20.96,-7.35 L21.21,-7.20 L29.31,-0.81 L29.47,-0.64 L29.59,-0.45 L29.67,-0.23 L29.70,0.00 L29.67,0.23 L29.59,0.45 L29.47,0.64 L29.31,0.81 L21.21,7.20 L20.96,7.35 L20.68,7.42 L20.39,7.41 L20.12,7.32 L19.88,7.16 L19.70,6.94 L19.58,6.68 L19.54,6.40 Z"/><path d="M69.47,11.32 L69.87,11.24 L70.20,11.02 L70.42,10.69 L70.50,10.29 L70.42,9.89 L70.20,9.56 L69.87,9.34 L69.47,9.26 L46.31,9.26 L45.91,9.34 L45.58,9.56 L45.36,9.89 L45.28,10.29 L45.36,10.69 L45.58,11.02 L45.91,11.24 L46.31,11.32 Z"/><path d="M76.20,-6.43 L75.90,-6.37 L75.65,-6.20 L75.49,-5.96 L75.43,-5.66 L75.49,-5.36 L75.65,-5.11 L75.90,-4.95 L76.20,-4.89 L79.29,-4.89 L79.59,-4.95 L79.83,-5.11 L80.00,-5.36 L80.06,-5.66 L80.00,-5.96 L79.83,-6.20 L79.59,-6.37 L79.29,-6.43 Z"/><path d="M76.20,6.43 L75.90,6.37 L75.65,6.20 L75.49,5.96 L75.43,5.66 L75.49,5.36 L75.65,5.11 L75.90,4.95 L76.20,4.89 L79.29,4.89 L79.59,4.95 L79.83,5.11 L80.00,5.36 L80.06,5.66 L80.00,5.96 L79.83,6.20 L79.59,6.37 L79.29,6.43 Z"/><path d="M-74.26,12.45 L-74.22,12.65 L-74.11,12.81 L-73.95,12.92 L-73.74,12.96 L-73.54,12.92 L-73.38,12.81 L-73.27,12.65 L-73.23,12.45 L-69.11,12.45 L-69.07,12.65 L-68.96,12.81 L-68.80,12.92 L-68.60,12.96 L-68.40,12.92 L-68.23,12.81 L-68.12,12.65 L-68.08,12.45 L-68.08,10.39 L-68.12,10.19 L-68.23,10.03 L-68.40,9.92 L-68.60,9.88 L-68.80,9.92 L-68.96,10.03 L-69.07,10.19 L-69.11,10.39 L-73.23,10.39 L-73.27,10.19 L-73.38,10.03 L-73.54,9.92 L-73.74,9.88 L-73.95,9.92 L-74.11,10.03 L-74.22,10.19 L-74.26,10.39 Z"/><path d="M-74.26,-12.45 L-74.22,-12.65 L-74.11,-12.81 L-73.95,-12.92 L-73.74,-12.96 L-73.54,-12.92 L-73.38,-12.81 L-73.27,-12.65 L-73.23,-12.45 L-69.11,-12.45 L-69.07,-12.65 L-68.96,-12.81 L-68.80,-12.92 L-68.60,-12.96 L-68.40,-12.92 L-68.23,-12.81 L-68.12,-12.65 L-68.08,-12.45 L-68.08,-10.39 L-68.12,-10.19 L-68.23,-10.03 L-68.40,-9.92 L-68.60,-9.88 L-68.80,-9.92 L-68.96,-10.03 L-69.07,-10.19 L-69.11,-10.39 L-73.23,-10.39 L-73.27,-10.19 L-73.38,-10.03 L-73.54,-9.92 L-73.74,-9.88 L-73.95,-9.92 L-74.11,-10.03 L-74.22,-10.19 L-74.26,-10.39 Z"/><circle cx="-59.36" cy="-15.02" r="1.50"/><circle cx="-32.66" cy="-14.60" r="1.50"/><circle cx="23.11" cy="-14.60" r="1.50"/><circle cx="-59.36" cy="15.02" r="1.50"/><circle cx="-32.66" cy="14.60" r="1.50"/><circle cx="23.11" cy="14.60" r="1.50"/><circle cx="78.22" cy="-11.32" r="1.50"/><circle cx="78.22" cy="11.32" r="1.50"/></g></svg>