<svg xmlns="http://www.w3.org/2000/svg" width="114.3mm" height="53.9mm" viewBox="-57.1 -27.0 114.3 53.9"><g fill="none" stroke="#111" stroke-width="0.35" stroke-linejoin="round"><path d="M47.42,8.71 L47.80,8.86 L47.95,8.93 L48.09,9.03 L48.21,9.15 L48.31,9.29 L48.76,9.81 L49.33,10.15 L49.99,10.29 L50.67,10.20 L50.84,10.17 L51.01,10.16 L51.18,10.18 L51.34,10.23 L52.07,10.57 L52.74,11.00 L53.34,11.52 L53.87,12.12 L54.05,12.36 L54.23,12.61 L54.41,12.85 L54.58,13.10 L54.91,13.68 L55.10,14.31 L55.15,14.97 L55.06,15.63 L54.82,16.25 L54.47,16.81 L54.00,17.28 L53.44,17.64 L51.12,18.95 L48.96,20.49 L46.96,22.25 L45.16,24.21 L44.83,24.52 L44.45,24.76 L44.02,24.90 L43.57,24.95 L41.91,24.95 L41.27,24.85 L40.70,24.56 L40.25,24.12 L39.95,23.55 L39.86,23.26 L39.56,22.69 L39.11,22.25 L38.55,21.97 L37.91,21.86 L21.58,21.86 L20.90,21.98 L20.32,22.30 L19.86,22.78 L19.58,23.41 L19.30,24.04 L18.85,24.52 L18.26,24.84 L17.58,24.95 L15.91,24.95 L15.46,24.90 L15.04,24.76 L14.66,24.52 L14.33,24.21 L12.44,22.17 L10.35,20.35 L8.08,18.77 L5.64,17.44 L5.06,17.26 L4.47,17.26 L3.91,17.42 L3.40,17.74 L2.67,18.23 L1.86,18.53 L1.01,18.62 L0.14,18.51 L-0.67,18.19 L-1.38,17.69 L-1.95,17.04 L-2.35,16.27 L-2.65,15.71 L-3.10,15.29 L-3.65,15.02 L-4.28,14.92 L-19.39,14.92 L-20.01,15.02 L-20.57,15.29 L-21.01,15.71 L-21.32,16.27 L-21.86,17.23 L-22.64,17.98 L-23.61,18.45 L-24.70,18.62 L-25.79,18.45 L-26.76,17.98 L-27.55,17.23 L-28.08,16.27 L-28.39,15.71 L-28.84,15.29 L-29.39,15.02 L-30.01,14.92 L-47.69,14.92 L-50.78,12.45 L-50.78,11.42 L-50.58,11.38 L-50.41,11.27 L-50.30,11.11 L-50.26,10.91 L-50.30,10.71 L-50.41,10.54 L-50.58,10.43 L-50.78,10.39 L-54.63,10.39 L-54.83,10.35 L-55.00,10.24 L-55.11,10.08 L-55.15,9.88 L-55.15,-9.88 L-55.11,-10.08 L-55.00,-10.24 L-54.83,-10.35 L-54.63,-10.39 L-50.78,-10.39 L-50.58,-10.43 L-50.41,-10.54 L-50.30,-10.71 L-50.26,-10.91 L-50.30,-11.11 L-50.41,-11.27 L-50.58,-11.38 L-50.78,-11.42 L-50.78,-12.45 L-47.69,-14.92 L-30.01,-14.92 L-29.39,-15.02 L-28.84,-15.29 L-28.39,-15.71 L-28.08,-16.27 L-27.55,-17.23 L-26.76,-17.98 L-25.79,-18.45 L-24.70,-18.62 L-23.61,-18.45 L-22.64,-17.98 L-21.86,-17.23 L-21.32,-16.27 L-21.01,-15.71 L-20.57,-15.29 L-20.01,-15.02 L-19.39,-14.92 L-4.28,-14.92 L-3.65,-15.02 L-3.10,-15.29 L-2.65,-15.71 L-2.35,-16.27 L-1.95,-17.04 L-1.38,-17.69 L-0.67,-18.19 L0.14,-18.51 L1.01,-18.62 L1.86,-18.53 L2.67,-18.23 L3.40,-17.74 L3.91,-17.42 L4.47,-17.26 L5.06,-17.26 L5.64,-17.44 L8.08,-18.77 L10.35,-20.35 L12.44,-22.17 L14.33,-24.21 L14.66,-24.52 L15.04,-24.76 L15.46,-24.90 L15.91,-24.95 L17.58,-24.95 L18.22,-24.85 L18.78,-24.56 L19.23,-24.12 L19.53,-23.55 L19.63,-23.26 L19.93,-22.69 L20.38,-22.25 L20.94,-21.97 L21.58,-21.86 L37.91,-21.86 L38.58,-21.98 L39.17,-22.30 L39.62,-22.78 L39.90,-23.41 L40.18,-24.04 L40.64,-24.52 L41.23,-24.84 L41.91,-24.95 L43.57,-24.95 L44.02,-24.90 L44.45,-24.76 L44.83,-24.52 L45.16,-24.21 L46.96,-22.25 L48.96,-20.49 L51.12,-18.95 L53.44,-17.64 L54.00,-17.28 L54.47,-16.81 L54.82,-16.25 L55.06,-15.63 L55.15,-14.97 L55.10,-14.31 L54.91,-13.68 L54.58,-13.10 L54.41,-12.85 L54.23,-12.61 L54.05,-12.36 L53.87,-12.12 L53.34,-11.52 L52.74,-11.00 L52.07,-10.57 L51.34,-10.23 L51.18,-10.18 L51.01,-10.16 L50.84,-10.17 L50.67,-10.20 L49.99,-10.29 L49.33,-10.15 L48.76,-9.81 L48.31,-9.29 L48.21,-9.15 L48.09,-9.03 L47.95,-8.93 L47.80,-8.86 L47.42,-8.71 L46.61,-8.25 L45.98,-7.58 L45.58,-6.76 L45.44,-5.83 L45.44,5.83 L45.58,6.76 L45.98,7.58 L46.61,8.25 Z"/><path d="M-42.54,12.45 L-42.50,12.65 L-42.39,12.81 L-42.23,12.92 L-42.03,12.96 L-41.83,12.92 L-41.66,12.81 L-41.55,12.65 L-41.51,12.45 L-35.34,12.45 L-35.29,12.65 L-35.18,12.81 L-35.02,12.92 L-34.82,12.96 L-34.62,12.92 L-34.46,12.81 L-34.35,12.65 L-34.31,12.45 L-34.31,10.39 L-34.35,10.19 L-34.46,10.03 L-34.62,9.92 L-34.82,9.88 L-35.02,9.92 L-35.18,10.03 L-35.29,10.19 L-35.34,10.39 L-41.51,10.39 L-41.55,10.19 L-41.66,10.03 L-41.83,9.92 L-42.03,9.88 L-42.23,9.92 L-42.39,10.03 L-42.50,10.19 L-42.54,10.39 Z"/><path d="M-18.86,12.45 L-18.82,12.65 L-18.71,12.81 L-18.55,12.92 L-18.35,12.96 L-18.15,12.92 L-17.98,12.81 L-17.87,12.65 L-17.83,12.45 L-11.66,12.45 L-11.62,12.65 L-11.51,12.81 L-11.34,12.92 L-11.14,12.96 L-10.94,12.92 L-10.78,12.81 L-10.67,12.65 L-10.63,12.45 L-10.63,10.39 L-10.67,10.19 L-10.78,10.03 L-10.94,9.92 L-11.14,9.88 L-11.34,9.92 L-11.51,10.03 L-11.62,10.19 L-11.66,10.39 L-17.83,10.39 L-17.87,10.19 L-17.98,10.03 L-18.15,9.92 L-18.35,9.88 L-18.55,9.92 L-18.71,10.03 L-18.82,10.19 L-18.86,10.39 Z"/><path d="M-42.94,6.86 L-31.46,6.86 L-31.29,6.84 L-31.15,6.76 L-31.04,6.65 L-30.96,6.50 L-30.94,6.34 L-30.97,6.18 L-31.05,6.04 L-31.17,5.92 L-36.91,2.06 L-37.05,1.99 L-37.20,1.97 L-37.35,1.99 L-37.49,2.06 L-43.23,5.92 L-43.35,6.04 L-43.43,6.18 L-43.46,6.34 L-43.43,6.50 L-43.36,6.65 L-43.25,6.76 L-43.10,6.84 Z"/><path d="M-26.76,4.20 L-26.78,4.34 L-26.83,4.47 L-26.92,4.58 L-27.03,4.66 L-27.16,4.71 L-27.30,4.72 L-27.44,4.69 L-27.56,4.63 L-33.80,0.43 L-33.90,0.34 L-33.97,0.24 L-34.01,0.13 L-34.03,0.00 L-34.01,-0.13 L-33.97,-0.24 L-33.90,-0.34 L-33.80,-0.43 L-27.56,-4.63 L-27.44,-4.69 L-27.30,-4.72 L-27.16,-4.71 L-27.03,-4.66 L-26.92,-4.58 L-26.83,-4.47 L-26.78,-4.34 L-26.76,-4.20 Z"/><path d="M-47.06,-4.78 L-47.18,-4.84 L-47.31,-4.87 L-47.45,-4.86 L-47.58,-4.82 L-47.69,-4.74 L-47.78,-4.64 L-47.84,-4.52 L-47.86,-4.38 L-47.96,-2.19 L-47.99,0.00 L-47.96,2.19 L-47.86,4.38 L-47.84,4.52 L-47.78,4.64 L-47.69,4.74 L-47.58,4.82 L-47.45,4.86 L-47.31,4.87 L-47.18,4.84 L-47.06,4.78 L-40.59,0.43 L-40.50,0.34 L-40.43,0.24 L-40.38,0.13 L-40.37,0.00 L-40.38,-0.13 L-40.43,-0.24 L-40.50,-0.34 L-40.59,-0.43 Z"/><path d="M23.55,15.69 L22.95,15.81 L22.45,16.14 L22.12,16.63 L22.00,17.23 L22.12,17.83 L22.45,18.33 L22.95,18.66 L23.55,18.78 L35.94,18.78 L36.54,18.66 L37.03,18.33 L37.36,17.83 L37.48,17.23 L37.36,16.63 L37.03,16.14 L36.54,15.81 L35.94,15.69 Z"/><path d="M-42.54,-12.45 L-42.50,-12.65 L-42.39,-12.81 L-42.23,-12.92 L-42.03,-12.96 L-41.83,-12.92 L-41.66,-12.81 L-41.55,-12.65 L-41.51,-12.45 L-35.34,-12.45 L-35.29,-12.65 L-35.18,-12.81 L-35.02,-12.92 L-34.82,-12.96 L-34.62,-12.92 L-34.46,-12.81 L-34.35,-12.65 L-34.31,-12.45 L-34.31,-10.39 L-34.35,-10.19 L-34.46,-10.03 L-34.62,-9.92 L-34.82,-9.88 L-35.02,-9.92 L-35.18,-10.03 L-35.29,-10.19 L-35.34,-10.39 L-41.51,-10.39 L-41.55,-10.19 L-41.66,-10.03 L-41.83,-9.92 L-42.03,-9.88 L-42.23,-9.92 L-42.39,-10.03 L-42.50,-10.19 L-42.54,-10.39 Z"/><path d="M-18.86,-12.45 L-18.82,-12.65 L-18.71,-12.81 L-18.55,-12.92 L-18.35,-12.96 L-18.15,-12.92 L-17.98,-12.81 L-17.87,-12.65 L-17.83,-12.45 L-11.66,-12.45 L-11.62,-12.65 L-11.51,-12.81 L-11.34,-12.92 L-11.14,-12.96 L-10.94,-12.92 L-10.78,-12.81 L-10.67,-12.65 L-10.63,-12.45 L-10.63,-10.39 L-10.67,-10.19 L-10.78,-10.03 L-10.94,-9.92 L-11.14,-9.88 L-11.34,-9.92 L-11.51,-10.03 L-11.62,-10.19 L-11.66,-10.39 L-17.83,-10.39 L-17.87,-10.19 L-17.98,-10.03 L-18.15,-9.92 L-18.35,-9.88 L-18.55,-9.92 L-18.71,-10.03 L-18.82,-10.19 L-18.86,-10.39 Z"/><path d="M-42.94,-6.86 L-31.46,-6.86 L-31.29,-6.84 L-31.15,-6.76 L-31.04,-6.65 L-30.96,-6.50 L-30.94,-6.34 L-30.97,-6.18 L-31.05,-6.04 L-31.17,-5.92 L-36.91,-2.06 L-37.05,-1.99 L-37.20,-1.97 L-37.35,-1.99 L-37.49,-2.06 L-43.23,-5.92 L-43.35,-6.04 L-43.43,-6.18 L-43.46,-6.34 L-43.43,-6.50 L-43.36,-6.65 L-43.25,-6.76 L-43.10,-6.84 Z"/><path d="M23.55,-15.69 L22.95,-15.81 L22.45,-16.14 L22.12,-16.63 L22.00,-17.23 L22.12,-17.83 L22.45,-18.33 L22.95,-18.66 L23.55,-18.78 L35.94,-18.78 L36.54,-18.66 L37.03,-18.33 L37.36,-17.83 L37.48,-17.23 L37.36,-16.63 L37.03,-16.14 L36.54,-15.81 L35.94,-15.69 Z"/><circle cx="29.74" cy="0.00" r="5.00"/><circle cx="13.64" cy="15.25" r="1.50"/><circle cx="-24.70" cy="15.02" r="1.50"/><circle cx="19.45" cy="10.29" r="1.50"/><circle cx="9.41" cy="8.23" r="2.00"/><circle cx="13.64" cy="-15.25" r="1.50"/><circle cx="-24.70" cy="-15.02" r="1.50"/><circle cx="19.45" cy="-10.29" r="1.50"/><circle cx="9.41" cy="-8.23" r="2.00"/><circle cx="44.40" cy="-16.18" r="1.48"/><circle cx="39.59" cy="-10.52" r="1.48"/><circle cx="44.40" cy="16.18" r="1.48"/><circle cx="39.59" cy="10.52" r="1.48"/><circle cx="3.32" cy="-14.65" r="1.48"/><circle cx="4.25" cy="-7.28" r="1.48"/><circle cx="3.32" cy="14.65" r="1.48"/><circle cx="4.25" cy="7.28" r="1.48"/></g></svg>