<svg xmlns="http://www.w3.org/2000/svg" width="108.2mm" height="52.9mm" viewBox="-54.1 -26.5 108.2 52.9"><g fill="none" stroke="#111" stroke-width="0.35" stroke-linejoin="round"><path d="M44.80,8.54 L45.15,8.68 L45.30,8.76 L45.43,8.85 L45.54,8.97 L45.64,9.11 L46.06,9.62 L46.61,9.95 L47.23,10.09 L47.87,10.00 L48.03,9.97 L48.19,9.96 L48.35,9.98 L48.50,10.03 L49.19,10.36 L49.82,10.78 L50.39,11.30 L50.89,11.89 L51.06,12.12 L51.23,12.36 L51.40,12.60 L51.57,12.84 L51.87,13.41 L52.05,14.03 L52.10,14.67 L52.01,15.32 L51.79,15.93 L51.46,16.48 L51.02,16.94 L50.49,17.29 L48.30,18.58 L46.25,20.09 L44.37,21.81 L42.66,23.73 L42.35,24.04 L41.99,24.27 L41.59,24.41 L41.16,24.46 L39.59,24.46 L38.99,24.36 L38.46,24.08 L38.03,23.65 L37.75,23.09 L37.66,22.81 L37.37,22.25 L36.95,21.81 L36.42,21.53 L35.81,21.44 L20.38,21.44 L19.75,21.55 L19.19,21.86 L18.76,22.34 L18.50,22.95 L18.24,23.56 L17.80,24.04 L17.25,24.35 L16.61,24.46 L15.03,24.46 L14.61,24.41 L14.21,24.27 L13.85,24.04 L13.54,23.73 L11.75,21.74 L9.78,19.95 L7.63,18.40 L5.33,17.10 L4.78,16.92 L4.23,16.92 L3.69,17.08 L3.21,17.39 L2.53,17.87 L1.76,18.16 L0.95,18.26 L0.13,18.15 L-0.64,17.83 L-1.30,17.35 L-1.84,16.71 L-2.22,15.95 L-2.50,15.41 L-2.93,14.99 L-3.45,14.72 L-4.04,14.63 L-18.32,14.63 L-18.91,14.72 L-19.43,14.99 L-19.85,15.41 L-20.14,15.95 L-20.65,16.89 L-21.39,17.62 L-22.30,18.09 L-23.34,18.26 L-24.37,18.09 L-25.28,17.62 L-26.02,16.89 L-26.53,15.95 L-26.82,15.41 L-27.24,14.99 L-27.77,14.72 L-28.36,14.63 L-45.05,14.63 L-47.97,12.21 L-47.97,11.20 L-47.78,11.16 L-47.63,11.05 L-47.52,10.89 L-47.48,10.69 L-47.52,10.50 L-47.63,10.34 L-47.78,10.23 L-47.97,10.19 L-51.61,10.19 L-51.80,10.15 L-51.96,10.04 L-52.06,9.88 L-52.10,9.68 L-52.10,-9.68 L-52.06,-9.88 L-51.96,-10.04 L-51.80,-10.15 L-51.61,-10.19 L-47.97,-10.19 L-47.78,-10.23 L-47.63,-10.34 L-47.52,-10.50 L-47.48,-10.69 L-47.52,-10.89 L-47.63,-11.05 L-47.78,-11.16 L-47.97,-11.20 L-47.97,-12.21 L-45.05,-14.63 L-28.36,-14.63 L-27.77,-14.72 L-27.24,-14.99 L-26.82,-15.41 L-26.53,-15.95 L-26.02,-16.89 L-25.28,-17.62 L-24.37,-18.09 L-23.34,-18.26 L-22.30,-18.09 L-21.39,-17.62 L-20.65,-16.89 L-20.14,-15.95 L-19.85,-15.41 L-19.43,-14.99 L-18.91,-14.72 L-18.32,-14.63 L-4.04,-14.63 L-3.45,-14.72 L-2.93,-14.99 L-2.50,-15.41 L-2.22,-15.95 L-1.84,-16.71 L-1.30,-17.35 L-0.64,-17.83 L0.13,-18.15 L0.95,-18.26 L1.76,-18.16 L2.53,-17.87 L3.21,-17.39 L3.69,-17.08 L4.23,-16.92 L4.78,-16.92 L5.33,-17.10 L7.63,-18.40 L9.78,-19.95 L11.75,-21.74 L13.54,-23.73 L13.85,-24.04 L14.21,-24.27 L14.61,-24.41 L15.03,-24.46 L16.61,-24.46 L17.21,-24.36 L17.74,-24.08 L18.17,-23.65 L18.45,-23.09 L18.54,-22.81 L18.82,-22.25 L19.25,-21.81 L19.78,-21.53 L20.38,-21.44 L35.81,-21.44 L36.45,-21.55 L37.00,-21.86 L37.43,-22.34 L37.70,-22.95 L37.96,-23.56 L38.39,-24.04 L38.95,-24.35 L39.59,-24.46 L41.16,-24.46 L41.59,-24.41 L41.99,-24.27 L42.35,-24.04 L42.66,-23.73 L44.37,-21.81 L46.25,-20.09 L48.30,-18.58 L50.49,-17.29 L51.02,-16.94 L51.46,-16.48 L51.79,-15.93 L52.01,-15.32 L52.10,-14.67 L52.05,-14.03 L51.87,-13.41 L51.57,-12.84 L51.40,-12.60 L51.23,-12.36 L51.06,-12.12 L50.89,-11.89 L50.39,-11.30 L49.82,-10.78 L49.19,-10.36 L48.50,-10.03 L48.35,-9.98 L48.19,-9.96 L48.03,-9.97 L47.87,-10.00 L47.23,-10.09 L46.61,-9.95 L46.06,-9.62 L45.64,-9.11 L45.54,-8.97 L45.43,-8.85 L45.30,-8.76 L45.15,-8.68 L44.80,-8.54 L44.03,-8.08 L43.44,-7.43 L43.06,-6.62 L42.93,-5.72 L42.93,5.72 L43.06,6.62 L43.44,7.43 L44.03,8.08 Z"/><path d="M-40.19,12.21 L-40.15,12.40 L-40.05,12.56 L-39.89,12.67 L-39.70,12.71 L-39.51,12.67 L-39.36,12.56 L-39.26,12.40 L-39.22,12.21 L-33.38,12.21 L-33.34,12.40 L-33.24,12.56 L-33.09,12.67 L-32.90,12.71 L-32.71,12.67 L-32.55,12.56 L-32.45,12.40 L-32.41,12.21 L-32.41,10.19 L-32.45,9.99 L-32.55,9.83 L-32.71,9.72 L-32.90,9.68 L-33.09,9.72 L-33.24,9.83 L-33.34,9.99 L-33.38,10.19 L-39.22,10.19 L-39.26,9.99 L-39.36,9.83 L-39.51,9.72 L-39.70,9.68 L-39.89,9.72 L-40.05,9.83 L-40.15,9.99 L-40.19,10.19 Z"/><path d="M-17.82,12.21 L-17.78,12.40 L-17.68,12.56 L-17.52,12.67 L-17.33,12.71 L-17.15,12.67 L-16.99,12.56 L-16.89,12.40 L-16.85,12.21 L-11.01,12.21 L-10.97,12.40 L-10.87,12.56 L-10.72,12.67 L-10.53,12.71 L-10.34,12.67 L-10.18,12.56 L-10.08,12.40 L-10.04,12.21 L-10.04,10.19 L-10.08,9.99 L-10.18,9.83 L-10.34,9.72 L-10.53,9.68 L-10.72,9.72 L-10.87,9.83 L-10.97,9.99 L-11.01,10.19 L-16.85,10.19 L-16.89,9.99 L-16.99,9.83 L-17.15,9.72 L-17.33,9.68 L-17.52,9.72 L-17.68,9.83 L-17.78,9.99 L-17.82,10.19 Z"/><path d="M-40.57,6.73 L-29.72,6.73 L-29.56,6.70 L-29.43,6.63 L-29.32,6.52 L-29.25,6.37 L-29.23,6.21 L-29.26,6.06 L-29.33,5.92 L-29.45,5.81 L-34.87,2.01 L-35.00,1.95 L-35.14,1.93 L-35.28,1.95 L-35.41,2.01 L-40.84,5.81 L-40.95,5.92 L-41.03,6.06 L-41.05,6.21 L-41.03,6.37 L-40.96,6.52 L-40.86,6.63 L-40.72,6.70 Z"/><path d="M-25.28,4.12 L-25.30,4.26 L-25.35,4.38 L-25.43,4.49 L-25.54,4.57 L-25.66,4.61 L-25.79,4.62 L-25.92,4.60 L-26.04,4.54 L-31.93,0.42 L-32.02,0.34 L-32.09,0.24 L-32.13,0.12 L-32.15,0.00 L-32.13,-0.12 L-32.09,-0.24 L-32.02,-0.34 L-31.93,-0.42 L-26.04,-4.54 L-25.92,-4.60 L-25.79,-4.62 L-25.66,-4.61 L-25.54,-4.57 L-25.43,-4.49 L-25.35,-4.38 L-25.30,-4.26 L-25.28,-4.12 Z"/><path d="M-44.46,-4.69 L-44.58,-4.75 L-44.70,-4.77 L-44.83,-4.77 L-44.95,-4.72 L-45.05,-4.65 L-45.14,-4.55 L-45.19,-4.43 L-45.22,-4.30 L-45.31,-2.15 L-45.33,0.00 L-45.31,2.15 L-45.22,4.30 L-45.19,4.43 L-45.14,4.55 L-45.05,4.65 L-44.95,4.72 L-44.83,4.77 L-44.70,4.77 L-44.58,4.75 L-44.46,4.69 L-38.35,0.42 L-38.26,0.34 L-38.19,0.24 L-38.15,0.12 L-38.14,0.00 L-38.15,-0.12 L-38.19,-0.24 L-38.26,-0.34 L-38.35,-0.42 Z"/><path d="M22.25,15.38 L21.68,15.50 L21.21,15.83 L20.90,16.31 L20.79,16.90 L20.90,17.48 L21.21,17.97 L21.68,18.29 L22.25,18.41 L33.95,18.41 L34.52,18.29 L34.98,17.97 L35.30,17.48 L35.41,16.90 L35.30,16.31 L34.98,15.83 L34.52,15.50 L33.95,15.38 Z"/><path d="M-40.19,-12.21 L-40.15,-12.40 L-40.05,-12.56 L-39.89,-12.67 L-39.70,-12.71 L-39.51,-12.67 L-39.36,-12.56 L-39.26,-12.40 L-39.22,-12.21 L-33.38,-12.21 L-33.34,-12.40 L-33.24,-12.56 L-33.09,-12.67 L-32.90,-12.71 L-32.71,-12.67 L-32.55,-12.56 L-32.45,-12.40 L-32.41,-12.21 L-32.41,-10.19 L-32.45,-9.99 L-32.55,-9.83 L-32.71,-9.72 L-32.90,-9.68 L-33.09,-9.72 L-33.24,-9.83 L-33.34,-9.99 L-33.38,-10.19 L-39.22,-10.19 L-39.26,-9.99 L-39.36,-9.83 L-39.51,-9.72 L-39.70,-9.68 L-39.89,-9.72 L-40.05,-9.83 L-40.15,-9.99 L-40.19,-10.19 Z"/><path d="M-17.82,-12.21 L-17.78,-12.40 L-17.68,-12.56 L-17.52,-12.67 L-17.33,-12.71 L-17.15,-12.67 L-16.99,-12.56 L-16.89,-12.40 L-16.85,-12.21 L-11.01,-12.21 L-10.97,-12.40 L-10.87,-12.56 L-10.72,-12.67 L-10.53,-12.71 L-10.34,-12.67 L-10.18,-12.56 L-10.08,-12.40 L-10.04,-12.21 L-10.04,-10.19 L-10.08,-9.99 L-10.18,-9.83 L-10.34,-9.72 L-10.53,-9.68 L-10.72,-9.72 L-10.87,-9.83 L-10.97,-9.99 L-11.01,-10.19 L-16.85,-10.19 L-16.89,-9.99 L-16.99,-9.83 L-17.15,-9.72 L-17.33,-9.68 L-17.52,-9.72 L-17.68,-9.83 L-17.78,-9.99 L-17.82,-10.19 Z"/><path d="M-40.57,-6.73 L-29.72,-6.73 L-29.56,-6.70 L-29.43,-6.63 L-29.32,-6.52 L-29.25,-6.37 L-29.23,-6.21 L-29.26,-6.06 L-29.33,-5.92 L-29.45,-5.81 L-34.87,-2.01 L-35.00,-1.95 L-35.14,-1.93 L-35.28,-1.95 L-35.41,-2.01 L-40.84,-5.81 L-40.95,-5.92 L-41.03,-6.06 L-41.05,-6.21 L-41.03,-6.37 L-40.96,-6.52 L-40.86,-6.63 L-40.72,-6.70 Z"/><path d="M22.25,-15.38 L21.68,-15.50 L21.21,-15.83 L20.90,-16.31 L20.79,-16.90 L20.90,-17.48 L21.21,-17.97 L21.68,-18.29 L22.25,-18.41 L33.95,-18.41 L34.52,-18.29 L34.98,-17.97 L35.30,-17.48 L35.41,-16.90 L35.30,-16.31 L34.98,-15.83 L34.52,-15.50 L33.95,-15.38 Z"/><circle cx="28.10" cy="0.00" r="5.00"/><circle cx="13.64" cy="15.25" r="1.50"/><circle cx="-23.34" cy="14.73" r="1.50"/><circle cx="18.37" cy="10.09" r="1.50"/><circle cx="8.89" cy="8.07" r="2.00"/><circle cx="13.64" cy="-15.25" r="1.50"/><circle cx="-23.34" cy="-14.73" r="1.50"/><circle cx="18.37" cy="-10.09" r="1.50"/><circle cx="8.89" cy="-8.07" r="2.00"/><circle cx="42.56" cy="-15.93" r="1.48"/><circle cx="37.68" cy="-10.33" r="1.48"/><circle cx="42.56" cy="15.93" r="1.48"/><circle cx="37.68" cy="10.33" r="1.48"/><circle cx="2.36" cy="-14.59" r="1.48"/><circle cx="3.25" cy="-7.22" r="1.48"/><circle cx="2.36" cy="14.59" r="1.48"/><circle cx="3.25" cy="7.22" r="1.48"/></g></svg>