<svg xmlns="http://www.w3.org/2000/svg" width="580" height="372" font-family="Helvetica,Arial,sans-serif">
<rect width="100%" height="100%" fill="#fffff8"/>
<line class="el" data-h="8b3765ea23bb" x1="83" y1="69" x2="83" y2="135" stroke="#999188" stroke-dasharray="3,3" stroke-width="1.2"/>
<path class="ed" data-c="1b0bce36392e" data-p="dee594c83495" d="M129,69 C129,102 129,102 129,135" stroke="#4a6fa5" fill="none" stroke-width="1.1" opacity="0.75"/>
<path class="ed" data-c="1b0bce36392e" data-p="dee594c83495" d="M129,69 C129,102 129,102 129,135" stroke="#4a6fa5" fill="none" stroke-width="1.1" opacity="0.75"/>
<path class="ed" data-c="e30baa557bd2" data-p="dee594c83495" d="M129,69 C129,102 175,102 175,135" stroke="#4a6fa5" fill="none" stroke-width="1.1" opacity="0.75"/>
<path class="ed" data-c="e30baa557bd2" data-p="849da485cd09" d="M175,69 C175,102 175,102 175,135" stroke="#4a6fa5" fill="none" stroke-width="1.1" opacity="0.75"/>
<line class="el" data-h="dee594c83495" x1="129" y1="69" x2="221" y2="135" stroke="#999188" stroke-dasharray="3,3" stroke-width="1.2"/>
<path class="ed" data-c="f27da6f61cea" data-p="849da485cd09" d="M175,69 C175,102 267,102 267,135" stroke="#4a6fa5" fill="none" stroke-width="1.1" opacity="0.75"/>
<path class="ed" data-c="f27da6f61cea" data-p="b2c90fdc499d" d="M313,69 C313,102 267,102 267,135" stroke="#4a6fa5" fill="none" stroke-width="1.1" opacity="0.75"/>
<path class="ed" data-c="119ca7a5a52d" data-p="8b3765ea23bb" d="M83,69 C83,102 313,102 313,135" stroke="#4a6fa5" fill="none" stroke-width="1.1" opacity="0.75"/>
<path class="ed" data-c="119ca7a5a52d" data-p="dee594c83495" d="M129,69 C129,102 313,102 313,135" stroke="#4a6fa5" fill="none" stroke-width="1.1" opacity="0.75"/>
<path class="ed" data-c="b459a86595ad" data-p="8b3765ea23bb" d="M83,69 C83,102 359,102 359,135" stroke="#4a6fa5" fill="none" stroke-width="1.1" opacity="0.75"/>
<path class="ed" data-c="b459a86595ad" data-p="c681581ef2da" d="M359,69 C359,102 359,102 359,135" stroke="#4a6fa5" fill="none" stroke-width="1.1" opacity="0.75"/>
<line class="el" data-h="8b3765ea23bb" x1="83" y1="153" x2="83" y2="219" stroke="#999188" stroke-dasharray="3,3" stroke-width="1.2"/>
<path class="ed" data-c="21c603fe1668" data-p="e30baa557bd2" d="M175,153 C175,186 129,186 129,219" stroke="#4a6fa5" fill="none" stroke-width="1.1" opacity="0.75"/>
<path class="ed" data-c="21c603fe1668" data-p="8b3765ea23bb" d="M83,153 C83,186 129,186 129,219" stroke="#4a6fa5" fill="none" stroke-width="1.1" opacity="0.75"/>
<line class="el" data-h="1b0bce36392e" x1="129" y1="153" x2="175" y2="219" stroke="#999188" stroke-dasharray="3,3" stroke-width="1.2"/>
<path class="ed" data-c="53e14d589fdc" data-p="e30baa557bd2" d="M175,153 C175,186 221,186 221,219" stroke="#8c2f1f" fill="none" stroke-width="1.1" opacity="0.75"/>
<path class="ed" data-c="de76038e7a8f" data-p="dee594c83495" d="M221,153 C221,186 267,186 267,219" stroke="#4a6fa5" fill="none" stroke-width="1.1" opacity="0.75"/>
<path class="ed" data-c="de76038e7a8f" data-p="e30baa557bd2" d="M175,153 C175,186 267,186 267,219" stroke="#4a6fa5" fill="none" stroke-width="1.1" opacity="0.75"/>
<path class="ed" data-c="442b07e616a8" data-p="e30baa557bd2" d="M175,153 C175,186 313,186 313,219" stroke="#4a6fa5" fill="none" stroke-width="1.1" opacity="0.75"/>
<path class="ed" data-c="442b07e616a8" data-p="8b3765ea23bb" d="M83,153 C83,186 313,186 313,219" stroke="#4a6fa5" fill="none" stroke-width="1.1" opacity="0.75"/>
<path class="ed" data-c="51e1f5c9014f" data-p="119ca7a5a52d" d="M313,153 C313,186 359,186 359,219" stroke="#4a6fa5" fill="none" stroke-width="1.1" opacity="0.75"/>
<path class="ed" data-c="51e1f5c9014f" data-p="1b0bce36392e" d="M129,153 C129,186 359,186 359,219" stroke="#4a6fa5" fill="none" stroke-width="1.1" opacity="0.75"/>
<path class="ed" data-c="1f6960cc85e4" data-p="8b3765ea23bb" d="M83,153 C83,186 405,186 405,219" stroke="#4a6fa5" fill="none" stroke-width="1.1" opacity="0.75"/>
<path class="ed" data-c="1f6960cc85e4" data-p="dee594c83495" d="M221,153 C221,186 405,186 405,219" stroke="#4a6fa5" fill="none" stroke-width="1.1" opacity="0.75"/>
<circle class="nd" data-h="8b3765ea23bb" cx="83" cy="60" r="9.0" fill="#111111" stroke="#6b6a60" stroke-width="1.2"><title>8b3765ea23bb gen0 seed 7.047</title></circle>
<circle class="hit" data-h="8b3765ea23bb" cx="83" cy="60" r="14.0" fill="transparent" stroke="none"/>
<circle class="nd" data-h="dee594c83495" cx="129" cy="60" r="9.0" fill="#a4a194" stroke="#6b6a60" stroke-width="1.2"><title>dee594c83495 gen0 seed 7.765</title></circle>
<circle class="hit" data-h="dee594c83495" cx="129" cy="60" r="14.0" fill="transparent" stroke="none"/>
<circle class="nd" data-h="849da485cd09" cx="175" cy="60" r="9.0" fill="none" stroke="#b9b6a6" stroke-width="1.2"><title>849da485cd09 gen0 seed no flat area for flight-controller mount</title></circle>
<circle class="hit" data-h="849da485cd09" cx="175" cy="60" r="14.0" fill="transparent" stroke="none"/>
<circle class="nd" data-h="89ebb2709f0c" cx="221" cy="60" r="9.0" fill="none" stroke="#b9b6a6" stroke-width="1.2"><title>89ebb2709f0c gen0 seed arm root tongues overlap in the deck</title></circle>
<circle class="hit" data-h="89ebb2709f0c" cx="221" cy="60" r="14.0" fill="transparent" stroke="none"/>
<circle class="nd" data-h="44e3da5ab44e" cx="267" cy="60" r="9.0" fill="none" stroke="#b9b6a6" stroke-width="1.2"><title>44e3da5ab44e gen0 seed deck gap too small for stack + arm tongues</title></circle>
<circle class="hit" data-h="44e3da5ab44e" cx="267" cy="60" r="14.0" fill="transparent" stroke="none"/>
<circle class="nd" data-h="b2c90fdc499d" cx="313" cy="60" r="9.0" fill="none" stroke="#b9b6a6" stroke-width="1.2"><title>b2c90fdc499d gen0 seed arm tip deflection (pet_cf)</title></circle>
<circle class="hit" data-h="b2c90fdc499d" cx="313" cy="60" r="14.0" fill="transparent" stroke="none"/>
<circle class="nd" data-h="c681581ef2da" cx="359" cy="60" r="9.0" fill="none" stroke="#b9b6a6" stroke-width="1.2"><title>c681581ef2da gen0 seed rotor too close to deck</title></circle>
<circle class="hit" data-h="c681581ef2da" cx="359" cy="60" r="14.0" fill="transparent" stroke="none"/>
<circle class="nd" data-h="6f205db2851a" cx="405" cy="60" r="9.0" fill="none" stroke="#b9b6a6" stroke-width="1.2"><title>6f205db2851a gen0 seed rotor disks overlap (tip clearance)</title></circle>
<circle class="hit" data-h="6f205db2851a" cx="405" cy="60" r="14.0" fill="transparent" stroke="none"/>
<circle class="nd" data-h="8b3765ea23bb" cx="83" cy="144" r="5.0" fill="#111111" stroke="#6b6a60" stroke-width="1.2"><title>8b3765ea23bb gen0 seed 7.047</title></circle>
<circle class="hit" data-h="8b3765ea23bb" cx="83" cy="144" r="14.0" fill="transparent" stroke="none"/>
<circle class="nd" data-h="1b0bce36392e" cx="129" cy="144" r="9.0" fill="#868479" stroke="#6b6a60" stroke-width="1.2"><title>1b0bce36392e gen1 crossover 7.618</title></circle>
<circle class="hit" data-h="1b0bce36392e" cx="129" cy="144" r="14.0" fill="transparent" stroke="none"/>
<circle class="nd" data-h="e30baa557bd2" cx="175" cy="144" r="9.0" fill="#87857a" stroke="#6b6a60" stroke-width="1.2"><title>e30baa557bd2 gen1 crossover 7.623</title></circle>
<circle class="hit" data-h="e30baa557bd2" cx="175" cy="144" r="14.0" fill="transparent" stroke="none"/>
<circle class="nd" data-h="dee594c83495" cx="221" cy="144" r="5.0" fill="#a4a194" stroke="#6b6a60" stroke-width="1.2"><title>dee594c83495 gen0 seed 7.765</title></circle>
<circle class="hit" data-h="dee594c83495" cx="221" cy="144" r="14.0" fill="transparent" stroke="none"/>
<circle class="nd" data-h="f27da6f61cea" cx="267" cy="144" r="9.0" fill="none" stroke="#b9b6a6" stroke-width="1.2"><title>f27da6f61cea gen1 crossover arm root tongues overlap in the deck</title></circle>
<circle class="hit" data-h="f27da6f61cea" cx="267" cy="144" r="14.0" fill="transparent" stroke="none"/>
<circle class="nd" data-h="119ca7a5a52d" cx="313" cy="144" r="9.0" fill="none" stroke="#b9b6a6" stroke-width="1.2"><title>119ca7a5a52d gen1 crossover rotor disks overlap (tip clearance)</title></circle>
<circle class="hit" data-h="119ca7a5a52d" cx="313" cy="144" r="14.0" fill="transparent" stroke="none"/>
<circle class="nd" data-h="b459a86595ad" cx="359" cy="144" r="9.0" fill="none" stroke="#b9b6a6" stroke-width="1.2"><title>b459a86595ad gen1 crossover no flat area for flight-controller mount</title></circle>
<circle class="hit" data-h="b459a86595ad" cx="359" cy="144" r="14.0" fill="transparent" stroke="none"/>
<circle class="nd" data-h="d6a51eb46b3f" cx="405" cy="144" r="9.0" fill="none" stroke="#b9b6a6" stroke-width="1.2"><title>d6a51eb46b3f gen1 immigrant arm root tongues overlap in the deck</title></circle>
<circle class="hit" data-h="d6a51eb46b3f" cx="405" cy="144" r="14.0" fill="transparent" stroke="none"/>
<circle class="nd" data-h="8b3765ea23bb" cx="83" cy="228" r="5.0" fill="#111111" stroke="#6b6a60" stroke-width="1.2"><title>8b3765ea23bb gen0 seed 7.047</title></circle>
<circle class="hit" data-h="8b3765ea23bb" cx="83" cy="228" r="14.0" fill="transparent" stroke="none"/>
<circle class="nd" data-h="21c603fe1668" cx="129" cy="228" r="9.0" fill="#1d1d1b" stroke="#6b6a60" stroke-width="1.2"><title>21c603fe1668 gen2 crossover 7.104</title></circle>
<circle class="hit" data-h="21c603fe1668" cx="129" cy="228" r="14.0" fill="transparent" stroke="none"/>
<circle class="nd" data-h="1b0bce36392e" cx="175" cy="228" r="5.0" fill="#868479" stroke="#6b6a60" stroke-width="1.2"><title>1b0bce36392e gen1 crossover 7.618</title></circle>
<circle class="hit" data-h="1b0bce36392e" cx="175" cy="228" r="14.0" fill="transparent" stroke="none"/>
<circle class="nd" data-h="53e14d589fdc" cx="221" cy="228" r="9.0" fill="#b8b5a6" stroke="#6b6a60" stroke-width="1.2"><title>53e14d589fdc gen2 mutation 7.861</title></circle>
<circle class="hit" data-h="53e14d589fdc" cx="221" cy="228" r="14.0" fill="transparent" stroke="none"/>
<circle class="nd" data-h="de76038e7a8f" cx="267" cy="228" r="9.0" fill="#d9d5c3" stroke="#6b6a60" stroke-width="1.2"><title>de76038e7a8f gen2 crossover 8.023</title></circle>
<circle class="hit" data-h="de76038e7a8f" cx="267" cy="228" r="14.0" fill="transparent" stroke="none"/>
<circle class="nd" data-h="442b07e616a8" cx="313" cy="228" r="9.0" fill="none" stroke="#b9b6a6" stroke-width="1.2"><title>442b07e616a8 gen2 crossover arm resonance with rotor 1P</title></circle>
<circle class="hit" data-h="442b07e616a8" cx="313" cy="228" r="14.0" fill="transparent" stroke="none"/>
<circle class="nd" data-h="51e1f5c9014f" cx="359" cy="228" r="9.0" fill="none" stroke="#b9b6a6" stroke-width="1.2"><title>51e1f5c9014f gen2 crossover rotor disks overlap (tip clearance)</title></circle>
<circle class="hit" data-h="51e1f5c9014f" cx="359" cy="228" r="14.0" fill="transparent" stroke="none"/>
<circle class="nd" data-h="1f6960cc85e4" cx="405" cy="228" r="9.0" fill="none" stroke="#b9b6a6" stroke-width="1.2"><title>1f6960cc85e4 gen2 crossover no flat area for flight-controller mount</title></circle>
<circle class="hit" data-h="1f6960cc85e4" cx="405" cy="228" r="14.0" fill="transparent" stroke="none"/>
<text x="16" y="64" font-size="11" fill="#9b998c">g0</text>
<text x="16" y="148" font-size="11" fill="#9b998c">g1</text>
<text x="16" y="232" font-size="11" fill="#9b998c">g2</text>
<line x1="60" y1="346" x2="76" y2="346" stroke="#4a6fa5" stroke-width="2"/>
<text x="80" y="350" font-size="10" fill="#6b6a60">crossover</text>
<line x1="153" y1="346" x2="169" y2="346" stroke="#8c2f1f" stroke-width="2"/>
<text x="173" y="350" font-size="10" fill="#6b6a60">mutation</text>
<line x1="239" y1="346" x2="255" y2="346" stroke="#8a6a1e" stroke-width="2"/>
<text x="259" y="350" font-size="10" fill="#6b6a60">immigrant</text>
<line x1="332" y1="346" x2="348" y2="346" stroke="#9b998c" stroke-width="2"/>
<text x="352" y="350" font-size="10" fill="#6b6a60">elite</text>
<line x1="397" y1="346" x2="413" y2="346" stroke="#b9b6a6" stroke-width="2"/>
<text x="417" y="350" font-size="10" fill="#6b6a60">seed</text>
<line x1="455" y1="346" x2="471" y2="346" stroke="#888888" stroke-width="2"/>
<text x="475" y="350" font-size="10" fill="#6b6a60">cmaes</text>
</svg>