<svg xmlns="http://www.w3.org/2000/svg" width="139.7mm" height="33.4mm" viewBox="-2.0 -16.7 139.7 33.4"><g fill="none" stroke="#111" stroke-width="0.35" stroke-linejoin="round"><path d="M3.96,-8.47 L6.08,-8.41 L8.20,-8.35 L10.32,-8.29 L12.44,-8.23 L12.54,-8.22 L12.64,-8.18 L12.72,-8.13 L12.80,-8.07 L12.86,-7.99 L12.90,-7.90 L12.92,-7.80 L12.93,-7.70 L12.95,-7.18 L13.07,-6.68 L13.57,-5.82 L14.35,-5.22 L14.83,-5.03 L15.34,-4.95 L15.87,-4.96 L16.36,-5.08 L17.22,-5.57 L17.84,-6.35 L18.02,-6.83 L18.11,-7.34 L18.13,-7.59 L18.18,-7.78 L18.30,-7.93 L18.46,-8.02 L18.65,-8.06 L20.65,-8.00 L22.65,-7.94 L24.31,-6.95 L25.85,-6.87 L27.39,-6.77 L28.93,-6.65 L30.47,-6.51 L32.01,-6.35 L33.54,-6.17 L35.08,-5.98 L36.62,-5.78 L38.16,-5.57 L39.70,-5.35 L41.23,-5.12 L42.77,-4.90 L44.31,-4.67 L45.85,-4.45 L47.39,-4.24 L48.92,-4.03 L50.46,-3.83 L52.00,-3.65 L53.54,-3.48 L55.08,-3.32 L56.62,-3.18 L58.15,-3.06 L59.69,-2.96 L61.23,-2.88 L62.77,-2.82 L64.31,-2.77 L65.84,-2.75 L67.38,-2.74 L68.92,-2.76 L70.46,-2.79 L72.00,-2.84 L73.53,-2.90 L75.07,-2.97 L76.61,-3.06 L78.15,-3.15 L79.69,-3.25 L81.23,-3.36 L82.76,-3.47 L84.30,-3.59 L85.84,-3.70 L87.38,-3.81 L88.92,-3.91 L90.45,-4.01 L91.99,-4.10 L93.53,-4.17 L95.07,-4.24 L96.61,-4.30 L98.26,-4.42 L99.90,-4.68 L101.51,-5.09 L103.08,-5.64 L104.62,-6.33 L106.10,-7.16 L107.73,-9.19 L109.49,-10.43 L112.56,-12.79 L113.04,-13.07 L113.56,-13.23 L114.11,-13.26 L114.65,-13.15 L115.15,-12.91 L115.58,-12.57 L115.90,-12.13 L116.12,-11.62 L116.62,-10.47 L117.39,-9.50 L118.37,-8.77 L119.54,-8.30 L120.78,-8.15 L122.00,-8.33 L123.14,-8.81 L124.13,-9.58 L125.63,-11.09 L127.12,-12.61 L128.62,-14.13 L129.09,-14.49 L129.64,-14.68 L130.22,-14.72 L130.79,-14.58 L132.28,-13.80 L133.58,-12.75 L134.65,-11.47 L135.45,-9.99 L135.59,-9.42 L135.57,-8.84 L135.38,-8.29 L135.03,-7.81 L133.27,-6.03 L131.52,-4.25 L130.75,-3.30 L130.21,-2.26 L129.89,-1.14 L129.79,0.00 L129.91,1.15 L130.24,2.26 L130.80,3.30 L131.58,4.23 L133.36,5.99 L135.14,7.74 L135.49,8.22 L135.69,8.76 L135.72,9.34 L135.59,9.92 L134.80,11.41 L133.76,12.70 L132.47,13.77 L130.99,14.57 L130.42,14.72 L129.84,14.69 L129.29,14.50 L128.82,14.15 L127.30,12.66 L125.78,11.16 L124.26,9.66 L123.26,8.91 L122.12,8.44 L120.90,8.28 L119.65,8.45 L118.50,8.93 L117.52,9.68 L116.77,10.66 L116.28,11.82 L116.07,12.33 L115.75,12.77 L115.33,13.12 L114.83,13.36 L114.29,13.48 L113.75,13.46 L113.22,13.31 L112.74,13.04 L110.84,11.61 L109.05,10.40 L107.18,9.34 L105.59,7.45 L104.04,6.79 L102.45,6.26 L100.83,5.88 L99.18,5.63 L97.52,5.52 L95.98,5.48 L94.43,5.41 L92.89,5.33 L91.35,5.24 L89.80,5.13 L88.26,5.02 L86.72,4.89 L85.17,4.76 L83.63,4.62 L82.09,4.49 L80.54,4.35 L79.00,4.22 L77.46,4.10 L75.91,3.99 L74.37,3.89 L72.82,3.81 L71.28,3.74 L69.74,3.70 L68.19,3.67 L66.65,3.67 L65.11,3.70 L63.56,3.75 L62.02,3.83 L60.48,3.93 L58.93,4.06 L57.39,4.22 L55.85,4.40 L54.30,4.61 L52.76,4.84 L51.22,5.09 L49.67,5.36 L48.13,5.65 L46.59,5.95 L45.04,6.26 L43.50,6.57 L41.96,6.89 L40.41,7.21 L38.87,7.53 L37.33,7.84 L35.78,8.13 L34.24,8.42 L32.70,8.68 L31.15,8.93 L29.61,9.15 L28.07,9.34 L26.52,9.51 L24.98,9.64 L23.43,9.74 L22.74,11.10 L21.99,11.19 L21.24,11.32 L20.50,11.49 L18.47,12.00 L16.45,12.52 L14.43,13.03 L12.41,13.55 L10.38,14.06 L8.36,14.57 L7.51,14.66 L6.69,14.51 L5.94,14.14 L5.30,13.57 L4.86,12.84 L4.65,12.03 L4.66,11.19 L4.92,10.37 L5.92,8.27 L6.92,6.16 L6.98,6.07 L7.06,5.99 L7.16,5.93 L7.26,5.89 L7.55,5.77 L7.79,5.58 L7.95,5.32 L8.03,5.01 L8.01,4.70 L7.90,4.42 L7.71,4.18 L7.45,4.00 L7.15,3.92 L6.84,3.94 L6.55,4.04 L6.31,4.24 L6.22,4.31 L6.12,4.36 L6.01,4.39 L5.90,4.39 L2.95,4.17 L0.00,3.94 L0.20,1.32 L0.40,-1.30 L0.48,-1.63 L0.66,-1.90 L0.91,-2.10 L1.22,-2.21 L2.16,-2.55 L2.92,-3.15 L3.45,-3.97 L3.69,-4.94 Z"/><circle cx="15.21" cy="5.11" r="1.48"/><circle cx="120.81" cy="0.07" r="3.50"/><circle cx="9.57" cy="9.94" r="1.48"/><circle cx="8.32" cy="0.07" r="2.00"/><circle cx="128.81" cy="-9.43" r="1.60"/><circle cx="112.81" cy="-9.43" r="1.60"/><circle cx="128.81" cy="9.57" r="1.60"/><circle cx="112.81" cy="9.57" r="1.60"/></g></svg>